<svg width="148" height="13" viewBox="0 0 148 13" fill="none" xmlns="http://www.w3.org/2000/svg">
<line y1="4.0625" x2="125.304" y2="4.0625" stroke="black" stroke-opacity="0.16"/>
<line x1="67.6953" y1="7.0625" x2="125.304" y2="7.0625" stroke="black" stroke-opacity="0.16"/>
<path d="M146.198 5.08979H144.18L143.23 4.05754H143.551C143.594 4.06446 143.638 4.06125 143.679 4.04815C143.721 4.03505 143.76 4.01237 143.792 3.98163C143.825 3.95089 143.852 3.9128 143.87 3.87001C143.888 3.82721 143.897 3.78069 143.897 3.73362C143.897 3.68654 143.888 3.64002 143.87 3.59722C143.852 3.55443 143.825 3.51639 143.792 3.48564C143.76 3.4549 143.721 3.43222 143.679 3.41912C143.638 3.40602 143.594 3.40281 143.551 3.40974H142.614L141.959 2.69784H142.234C142.299 2.69784 142.36 2.67007 142.406 2.62067C142.451 2.57128 142.477 2.5043 142.477 2.43444C142.477 2.36459 142.451 2.29757 142.406 2.24817C142.36 2.19877 142.299 2.17105 142.234 2.17105H141.468L139.6 0.106537C139.548 0.0475146 139.478 0.0104762 139.403 0.00190844C139.328 -0.00665932 139.252 0.0137988 139.19 0.0596977C139.127 0.105597 139.081 0.174004 139.061 0.252879C139.04 0.331753 139.045 0.416025 139.076 0.490944L141.494 5.08267L137.34 5.40303L135.767 3.50229C135.728 3.50229 135.59 3.50227 135.544 3.57346C135.499 3.64465 135.374 3.72294 135.394 3.77989L136.219 5.54542L136.462 6.07934L136.324 6.3997L136.213 6.64172L135.407 8.37161C135.407 8.42145 135.518 8.5425 135.564 8.57809C135.61 8.61369 135.748 8.67773 135.78 8.63501L137.399 6.74852L141.5 7.0475L139.063 11.6392C139.034 11.7136 139.03 11.7963 139.05 11.8739C139.07 11.9515 139.114 12.0194 139.174 12.0663C139.228 12.1076 139.292 12.13 139.358 12.1304C139.401 12.1302 139.443 12.1206 139.482 12.1022C139.522 12.0839 139.557 12.0572 139.587 12.0236L141.441 10.009H142.221C142.257 10.0153 142.293 10.0132 142.328 10.0027C142.363 9.99216 142.395 9.97357 142.423 9.94817C142.45 9.92278 142.472 9.89118 142.487 9.85558C142.503 9.81998 142.51 9.78123 142.51 9.742C142.51 9.70278 142.503 9.66402 142.487 9.62842C142.472 9.59282 142.45 9.56122 142.423 9.53583C142.395 9.51043 142.363 9.49188 142.328 9.48139C142.293 9.47089 142.257 9.4687 142.221 9.47504H141.959L142.614 8.76315H143.551C143.591 8.76412 143.631 8.75632 143.668 8.74021C143.705 8.72409 143.738 8.70003 143.766 8.66943C143.795 8.63882 143.817 8.60232 143.832 8.56215C143.846 8.52197 143.854 8.47897 143.853 8.4357C143.853 8.34885 143.821 8.26557 143.764 8.20416C143.708 8.14274 143.631 8.10822 143.551 8.10822H143.217L144.18 7.06175H146.198C146.703 7.06175 148 6.61325 148 6.07221C148 5.53117 146.703 5.08979 146.198 5.08979Z" fill="#5F7681"/>
</svg>
