<svg width="121" height="28" viewBox="0 0 121 28" fill="none" xmlns="http://www.w3.org/2000/svg">
<g opacity="0.8">
<path d="M116.427 11.7485H111.305L108.894 9.36579H109.709C109.817 9.38177 109.928 9.37436 110.034 9.34412C110.14 9.31389 110.237 9.26153 110.321 9.19057C110.404 9.11961 110.471 9.0317 110.517 8.93292C110.562 8.83413 110.586 8.72675 110.586 8.61809C110.586 8.50943 110.562 8.40205 110.517 8.30327C110.471 8.20448 110.404 8.11667 110.321 8.04571C110.237 7.97475 110.14 7.9224 110.034 7.89216C109.928 7.86192 109.817 7.85452 109.709 7.8705L107.331 7.8705L105.668 6.22727H106.366C106.529 6.22727 106.686 6.16317 106.801 6.04915C106.917 5.93513 106.982 5.78054 106.982 5.61929C106.982 5.45804 106.917 5.30335 106.801 5.18933C106.686 5.07531 106.529 5.0113 106.366 5.0113H104.421L99.6813 0.245914C99.5482 0.109675 99.3707 0.0241816 99.1801 0.00440514C98.9895 -0.0153713 98.798 0.0318509 98.6392 0.137797C98.4804 0.243743 98.3644 0.401644 98.3117 0.583706C98.2589 0.765768 98.2729 0.960287 98.3509 1.13322L104.487 11.732L93.9442 12.4715L89.9531 8.08413C89.8534 8.08413 89.5041 8.08409 89.3877 8.24841C89.2713 8.41273 88.9554 8.59345 89.0053 8.72491L91.1006 12.8002L91.7158 14.0326L91.3666 14.7721L91.084 15.3307L89.0385 19.3237C89.0385 19.4387 89.3212 19.7182 89.4376 19.8003C89.554 19.8825 89.9033 20.0303 89.9864 19.9317L94.0939 15.5772L104.504 16.2674L98.3176 26.8662C98.2448 27.0378 98.233 27.2288 98.2844 27.408C98.3358 27.5871 98.4472 27.7437 98.6004 27.8521C98.7366 27.9473 98.8991 27.999 99.066 28C99.1747 27.9994 99.2822 27.9772 99.3822 27.9349C99.4822 27.8926 99.5726 27.8309 99.648 27.7535L104.354 23.1031H106.333C106.423 23.1178 106.516 23.1128 106.604 23.0886C106.693 23.0643 106.774 23.0214 106.844 22.9628C106.914 22.9042 106.97 22.8313 107.009 22.7491C107.047 22.6669 107.067 22.5775 107.067 22.4869C107.067 22.3964 107.047 22.3069 107.009 22.2247C106.97 22.1426 106.914 22.0696 106.844 22.011C106.774 21.9524 106.693 21.9096 106.604 21.8853C106.516 21.8611 106.423 21.8561 106.333 21.8707H105.668L107.331 20.2275H109.709C109.81 20.2297 109.91 20.2117 110.004 20.1745C110.098 20.1373 110.183 20.0818 110.255 20.0111C110.326 19.9405 110.382 19.8562 110.42 19.7635C110.458 19.6708 110.476 19.5715 110.474 19.4717C110.474 19.2712 110.393 19.0789 110.25 18.9372C110.106 18.7954 109.912 18.7157 109.709 18.7157H108.861L111.305 16.3002H116.427C117.707 16.3002 121 15.265 121 14.0161C121 12.7673 117.707 11.7485 116.427 11.7485Z" fill="#2B414B"/>
<rect y="13" width="82" height="1" fill="url(#paint0_linear_966_10881)"/>
</g>
<defs>
<linearGradient id="paint0_linear_966_10881" x1="82.5" y1="2.40112" x2="-9.88059e-07" y2="14.4012" gradientUnits="userSpaceOnUse">
<stop stop-color="#516165"/>
<stop offset="1" stop-color="#516165" stop-opacity="0"/>
</linearGradient>
</defs>
</svg>
