<svg width="121" height="29" viewBox="0 0 121 29" fill="none" xmlns="http://www.w3.org/2000/svg">
<g opacity="0.8">
<path d="M116.427 12.2485H111.305L108.894 9.86579H109.709C109.817 9.88177 109.928 9.87436 110.034 9.84412C110.14 9.81389 110.237 9.76153 110.321 9.69057C110.404 9.61961 110.471 9.5317 110.517 9.43292C110.562 9.33413 110.586 9.22675 110.586 9.11809C110.586 9.00943 110.562 8.90205 110.517 8.80327C110.471 8.70448 110.404 8.61667 110.321 8.54571C110.237 8.47475 110.14 8.4224 110.034 8.39216C109.928 8.36192 109.817 8.35452 109.709 8.3705H107.331L105.668 6.72727H106.366C106.529 6.72727 106.686 6.66317 106.801 6.54915C106.917 6.43513 106.982 6.28054 106.982 6.11929C106.982 5.95804 106.917 5.80335 106.801 5.68933C106.686 5.57531 106.529 5.5113 106.366 5.5113H104.421L99.6813 0.745914C99.5482 0.609675 99.3707 0.524182 99.1801 0.504405C98.9895 0.484629 98.798 0.531851 98.6392 0.637797C98.4804 0.743743 98.3644 0.901644 98.3117 1.08371C98.2589 1.26577 98.2729 1.46029 98.3509 1.63322L104.487 12.232L93.9442 12.9715L89.9531 8.58413C89.8534 8.58413 89.5041 8.58409 89.3877 8.74841C89.2713 8.91273 88.9554 9.09345 89.0053 9.22491L91.1006 13.3002L91.7158 14.5326L91.3666 15.2721L91.084 15.8307L89.0385 19.8237C89.0385 19.9387 89.3212 20.2182 89.4376 20.3003C89.554 20.3825 89.9033 20.5303 89.9864 20.4317L94.0939 16.0772L104.504 16.7674L98.3176 27.3662C98.2448 27.5378 98.233 27.7288 98.2844 27.908C98.3358 28.0871 98.4472 28.2437 98.6004 28.3521C98.7366 28.4473 98.8991 28.499 99.066 28.5C99.1747 28.4994 99.2822 28.4772 99.3822 28.4349C99.4822 28.3926 99.5726 28.3309 99.648 28.2535L104.354 23.6031H106.333C106.423 23.6178 106.516 23.6128 106.604 23.5886C106.693 23.5643 106.774 23.5214 106.844 23.4628C106.914 23.4042 106.97 23.3313 107.009 23.2491C107.047 23.1669 107.067 23.0775 107.067 22.9869C107.067 22.8964 107.047 22.8069 107.009 22.7247C106.97 22.6426 106.914 22.5696 106.844 22.511C106.774 22.4524 106.693 22.4096 106.604 22.3853C106.516 22.3611 106.423 22.3561 106.333 22.3707H105.668L107.331 20.7275H109.709C109.81 20.7297 109.91 20.7117 110.004 20.6745C110.098 20.6373 110.183 20.5818 110.255 20.5111C110.326 20.4405 110.382 20.3562 110.42 20.2635C110.458 20.1708 110.476 20.0715 110.474 19.9717C110.474 19.7712 110.393 19.5789 110.25 19.4372C110.106 19.2954 109.912 19.2157 109.709 19.2157H108.861L111.305 16.8002H116.427C117.707 16.8002 121 15.765 121 14.5161C121 13.2673 117.707 12.2485 116.427 12.2485Z" fill="white"/>
<rect y="13.5" width="82" height="1" fill="url(#paint0_linear_311_1916)"/>
</g>
<defs>
<linearGradient id="paint0_linear_311_1916" x1="82.5" y1="2.90112" x2="-9.88059e-07" y2="14.9012" gradientUnits="userSpaceOnUse">
<stop stop-color="white"/>
<stop offset="1" stop-color="white" stop-opacity="0"/>
</linearGradient>
</defs>
</svg>
