<svg width="861" height="861" viewBox="0 0 861 861" fill="none" xmlns="http://www.w3.org/2000/svg">
<g clip-path="url(#clip0_958_10442)">
<rect width="861" height="861" fill="white"/>
<ellipse cx="464" cy="344.5" rx="209" ry="209.5" fill="#2B414B" fill-opacity="0.08"/>
<path opacity="0.2" d="M605.161 10.7305L737.739 87.275C737.739 87.275 689.929 127.162 670.866 160.181C651.803 193.199 641.165 254.547 641.165 254.547L508.586 178.003C508.586 178.003 519.224 116.655 538.287 83.6362C557.351 50.6178 605.161 10.7305 605.161 10.7305Z" fill="#5F7681"/>
<path opacity="0.4" d="M208.079 237.019L129.267 282.521C129.267 282.521 157.688 306.233 169.02 325.86C180.353 345.488 186.677 381.957 186.677 381.957L265.488 336.455C265.488 336.455 259.164 299.986 247.832 280.358C236.5 260.73 208.079 237.019 208.079 237.019Z" fill="#5F7681"/>
<rect opacity="0.2" x="709.449" y="372" width="39" height="39" transform="rotate(29.914 709.449 372)" fill="#5F7681"/>
<rect opacity="0.2" x="175.124" y="534.195" width="29.0876" height="39" transform="rotate(-13.4581 175.124 534.195)" fill="#5F7681"/>
<rect opacity="0.2" x="226.979" y="94.8203" width="30.8537" height="37.8895" transform="rotate(-7.18761 226.979 94.8203)" fill="#5F7681"/>
<path d="M34.2166 610.527C34.2166 610.527 72.1818 610.958 170.508 637.304C268.835 663.651 307.606 727.175 307.606 727.175L302.957 744.527L277.342 737.664C277.342 737.664 199.716 701.522 147.322 687.483C94.927 673.444 11.0298 663.705 11.0298 663.705L34.2166 610.527Z" fill="#2B414B" fill-opacity="0.08"/>
<path d="M601.041 762.402C601.041 762.402 567.946 743.792 469.62 717.446C371.293 691.099 305.732 727.554 305.732 727.554L301.718 744.19L326.919 750.943C326.919 750.943 412.216 758.456 464.611 772.495C517.005 786.534 597.705 818.934 597.705 818.934L601.041 762.402Z" fill="#2B414B" fill-opacity="0.08"/>
<path opacity="0.6" fill-rule="evenodd" clip-rule="evenodd" d="M602.069 829.666C602.069 829.666 559.909 803.628 470.648 779.71C381.387 755.793 334.356 752.933 334.356 752.933L330.15 768.632C330.15 768.632 385.91 769.823 466.442 795.409C546.973 820.996 597.863 845.365 597.863 845.365L602.069 829.666ZM6.63067 669.924C6.63067 669.924 56.1786 668.655 145.922 692.701C223.391 713.459 265.043 731.879 274.988 736.529L275.086 736.163L334.578 752.104L325.943 784.328C325.943 784.328 306.596 784.015 294.98 780.902C283.363 777.79 266.451 768.388 266.451 768.388L270.751 752.343C259.03 747.416 205.545 725.504 141.716 708.401C69.3587 689.013 2.42408 685.623 2.42408 685.623L6.63067 669.924Z" fill="#5F7681"/>
<path opacity="0.8" d="M331.643 730.176C340.138 727.448 364.092 721.892 391.946 721.487C426.763 720.981 435.845 721.862 442.253 723.061C447.379 724.021 454.37 726.135 457.225 727.073" stroke="black" stroke-opacity="0.1"/>
<path opacity="0.8" d="M393.014 744.543C430.376 744.202 447.22 745.091 466.185 749.655C485.149 754.219 519.405 765.469 532.41 771.024C542.815 775.468 559.151 781.985 565.89 785.172" stroke="black" stroke-opacity="0.1"/>
<path opacity="0.8" d="M279.414 720.315C276.091 715.974 265.84 705.29 251.421 697.285C233.396 687.279 231.758 683.734 208.774 672.917C190.388 664.264 181.111 661.536 178.771 661.254" stroke="black" stroke-opacity="0.1"/>
<path opacity="0.8" d="M86.6796 641.756C64.0353 638.174 55.1545 636.415 53.5446 635.984M262.346 718.331C249.798 707.205 247.642 705.592 241.752 702.461C237.04 699.956 233.223 697.587 231.903 696.716" stroke="black" stroke-opacity="0.1"/>
<path opacity="0.8" d="M146.109 663.375C102.608 653.79 106.118 654.213 83.9967 649.838C66.2994 646.338 46.4603 643.749 38.7529 642.891" stroke="black" stroke-opacity="0.1"/>
<path opacity="0.8" d="M711 780.5C679.8 777.3 669.333 776.167 668 776" stroke="#EAE3D1"/>
<path d="M303 324H558V653L430.5 552.4L303 653V324Z" stroke="url(#paint0_linear_958_10442)" stroke-width="12" stroke-linecap="square" stroke-linejoin="round" stroke-dasharray="24 28"/>
</g>
<defs>
<linearGradient id="paint0_linear_958_10442" x1="333.686" y1="690.215" x2="141.229" y2="458.175" gradientUnits="userSpaceOnUse">
<stop stop-color="#2B414B"/>
<stop offset="1" stop-color="#5F7681"/>
</linearGradient>
<clipPath id="clip0_958_10442">
<rect width="861" height="861" fill="white"/>
</clipPath>
</defs>
</svg>
