<svg width="41" height="40" viewBox="0 0 41 40" fill="none" xmlns="http://www.w3.org/2000/svg">
<line y1="7.5" x2="40" y2="7.5" stroke="black" stroke-opacity="0.8"/>
<line y1="19.5" x2="28" y2="19.5" stroke="black" stroke-opacity="0.8"/>
<line y1="31.5" x2="40" y2="31.5" stroke="black" stroke-opacity="0.8"/>
<path d="M39.5709 18.7763H37.9704L37.2168 18.0104H37.4715C37.5055 18.0156 37.5401 18.0132 37.5731 18.0035C37.6061 17.9937 37.6367 17.9769 37.6627 17.9541C37.6888 17.9313 37.7096 17.903 37.7239 17.8713C37.7383 17.8395 37.7457 17.805 37.7457 17.7701C37.7457 17.7352 37.7383 17.7007 37.7239 17.6689C37.7096 17.6372 37.6888 17.6089 37.6627 17.5861C37.6367 17.5633 37.6061 17.5465 37.5731 17.5368C37.5401 17.527 37.5055 17.5247 37.4715 17.5298H36.7284L36.2087 17.0016H36.427C36.478 17.0016 36.5269 16.981 36.5629 16.9444C36.599 16.9077 36.6192 16.858 36.6192 16.8062C36.6192 16.7544 36.599 16.7046 36.5629 16.668C36.5269 16.6313 36.478 16.6108 36.427 16.6108H35.8189L34.3379 15.079C34.2963 15.0353 34.2408 15.0078 34.1813 15.0014C34.1217 14.9951 34.0619 15.0102 34.0122 15.0443C33.9626 15.0783 33.9264 15.1291 33.9099 15.1876C33.8934 15.2461 33.8978 15.3087 33.9222 15.3642L35.8397 18.771L32.5451 19.0087L31.2979 17.5985C31.2667 17.5985 31.1575 17.5985 31.1212 17.6513C31.0848 17.7041 30.9861 17.7622 31.0017 17.8044L31.6564 19.1143L31.8487 19.5105L31.7396 19.7482L31.6512 19.9277L31.012 21.2112C31.012 21.2482 31.1004 21.338 31.1368 21.3644C31.1731 21.3908 31.2823 21.4383 31.3083 21.4066L32.5918 20.007L35.8449 20.2288L33.9118 23.6356C33.889 23.6907 33.8853 23.7521 33.9014 23.8097C33.9174 23.8673 33.9522 23.9176 34.0001 23.9524C34.0427 23.9831 34.0935 23.9997 34.1456 24C34.1796 23.9998 34.2132 23.9927 34.2444 23.9791C34.2757 23.9655 34.3039 23.9456 34.3275 23.9208L35.7982 22.426H36.4166C36.4448 22.4307 36.4737 22.4291 36.5013 22.4213C36.5289 22.4135 36.5545 22.3997 36.5763 22.3809C36.5982 22.3621 36.6157 22.3386 36.6277 22.3122C36.6397 22.2858 36.646 22.257 36.646 22.2279C36.646 22.1988 36.6397 22.1701 36.6277 22.1437C36.6157 22.1173 36.5982 22.0938 36.5763 22.075C36.5545 22.0561 36.5289 22.0424 36.5013 22.0346C36.4737 22.0268 36.4448 22.0252 36.4166 22.0299H36.2087L36.7284 21.5017H37.4715C37.5031 21.5024 37.5345 21.4966 37.5638 21.4847C37.5931 21.4727 37.6197 21.4549 37.6421 21.4322C37.6644 21.4094 37.682 21.3824 37.6938 21.3526C37.7055 21.3228 37.7112 21.2909 37.7105 21.2587C37.7105 21.1943 37.6853 21.1325 37.6405 21.087C37.5957 21.0414 37.5349 21.0158 37.4715 21.0158H37.2065L37.9704 20.2394H39.5709C39.9711 20.2394 41 19.9066 41 19.5052C41 19.1038 39.9711 18.7763 39.5709 18.7763Z" fill="black" fill-opacity="0.8"/>
</svg>
