<svg width="281" height="403" viewBox="0 0 281 403" fill="none" xmlns="http://www.w3.org/2000/svg">
<path fill-rule="evenodd" clip-rule="evenodd" d="M144.5 0.335817L0.941927 403.001L0 402.665L143.558 0L144.5 0.335817ZM152.059 0.335817L8.50028 403.001L7.55835 402.665L151.117 0L152.059 0.335817ZM16.0585 403.001L159.617 0.335817L158.675 0L15.1166 402.665L16.0585 403.001ZM167.175 0.335817L23.6167 403.001L22.6748 402.665L166.233 0L167.175 0.335817ZM31.1751 403.001L174.733 0.335817L173.791 0L30.2332 402.665L31.1751 403.001ZM182.292 0.335817L38.7334 403.001L37.7915 402.665L181.35 0L182.292 0.335817ZM46.2917 403.001L189.85 0.335817L188.908 0L45.3497 402.665L46.2917 403.001ZM197.408 0.335817L53.8499 403.001L52.908 402.665L196.466 0L197.408 0.335817ZM61.4082 403.001L204.967 0.335817L204.025 0L60.4663 402.665L61.4082 403.001ZM212.525 0.335817L68.9666 403.001L68.0247 402.665L211.583 0L212.525 0.335817ZM76.5248 403.001L220.083 0.335817L219.141 0L75.5829 402.665L76.5248 403.001ZM227.641 0.335817L84.083 403.001L83.1411 402.665L226.699 0L227.641 0.335817ZM91.6414 403.001L235.2 0.335817L234.258 0L90.6995 402.665L91.6414 403.001ZM242.758 0.335817L99.1997 403.001L98.2578 402.665L241.816 0L242.758 0.335817ZM106.758 403.001L250.316 0.335817L249.374 0L105.816 402.665L106.758 403.001ZM257.874 0.335817L114.316 403.001L113.374 402.665L256.933 0L257.874 0.335817ZM121.875 403.001L265.433 0.335817L264.491 0L120.933 402.665L121.875 403.001ZM272.991 0.335817L129.433 403.001L128.491 402.665L272.049 0L272.991 0.335817ZM136.991 403.001L280.55 0.335817L279.608 0L136.049 402.665L136.991 403.001Z" fill="url(#paint0_linear_671_5741)"/>
<defs>
<linearGradient id="paint0_linear_671_5741" x1="200.971" y1="402.665" x2="200.949" y2="1.14639e-07" gradientUnits="userSpaceOnUse">
<stop stop-color="#735340"/>
<stop offset="1" stop-color="#735340" stop-opacity="0"/>
</linearGradient>
</defs>
</svg>
