<svg width="152" height="404" viewBox="0 0 152 404" fill="none" xmlns="http://www.w3.org/2000/svg">
<path fill-rule="evenodd" clip-rule="evenodd" d="M-92.0712 0.537815L-349.157 403.538L-350 403L-92.9143 0L-92.0712 0.537815ZM-78.4296 0.537815L-335.516 403.538L-336.359 403L-79.2727 0L-78.4296 0.537815ZM-321.874 403.538L-64.7885 0.537815L-65.6316 0L-322.718 403L-321.874 403.538ZM-51.1474 0.537815L-308.233 403.538L-309.076 403L-51.9905 0L-51.1474 0.537815ZM-294.592 403.538L-37.5058 0.537815L-38.3489 0L-295.435 403L-294.592 403.538ZM-23.8647 0.537815L-280.951 403.538L-281.794 403L-24.7078 0L-23.8647 0.537815ZM-267.309 403.537L-11.2719 0.537034L-12.116 0.000781476L-268.153 403.001L-267.309 403.537ZM2.36919 0.537034L-253.667 403.537L-254.511 403.001L1.52514 0.000781476L2.36919 0.537034ZM-240.026 403.537L16.0103 0.537034L15.1663 0.000781476L-240.87 403.001L-240.026 403.537ZM29.6514 0.537815L-227.435 403.538L-228.278 403L28.8083 0L29.6514 0.537815ZM-213.793 403.538L43.2925 0.537815L42.4495 0L-214.636 403L-213.793 403.538ZM56.9336 0.537815L-200.152 403.538L-200.995 403L56.0906 0L56.9336 0.537815ZM-186.511 403.538L70.5752 0.537815L69.7322 0L-187.354 403L-186.511 403.538ZM84.2164 0.537815L-172.87 403.538L-173.713 403L83.3733 0L84.2164 0.537815ZM-159.228 403.537L96.8086 0.537034L95.9646 0.000781476L-160.072 403.001L-159.228 403.537ZM110.45 0.537034L-145.586 403.537L-146.43 403.001L109.606 0.000781476L110.45 0.537034ZM-131.945 403.537L124.091 0.537034L123.247 0.000781476L-132.789 403.001L-131.945 403.537ZM137.732 0.537815L-119.353 403.538L-120.197 403L136.889 0L137.732 0.537815ZM-105.712 403.538L151.374 0.537815L150.531 0L-106.555 403L-105.712 403.538Z" fill="url(#paint0_linear_972_10782)"/>
<defs>
<linearGradient id="paint0_linear_972_10782" x1="-138.69" y1="402.941" x2="-138.711" y2="0.257804" gradientUnits="userSpaceOnUse">
<stop stop-color="#735340"/>
<stop offset="1" stop-color="#735340" stop-opacity="0"/>
</linearGradient>
</defs>
</svg>
