<svg width="148" height="403" viewBox="0 0 148 403" fill="none" xmlns="http://www.w3.org/2000/svg">
<path fill-rule="evenodd" clip-rule="evenodd" d="M1.16286 403L144.721 0.335693L143.779 -0.000123963L0.220931 402.665L1.16286 403ZM8.72121 403L152.279 0.335693L151.338 -0.000123963L7.77928 402.665L8.72121 403ZM159.838 0.335693L16.2796 403L15.3376 402.665L158.896 -0.000123963L159.838 0.335693ZM23.8377 403L167.396 0.335693L166.454 -0.000123963L22.8957 402.665L23.8377 403ZM174.954 0.335693L31.396 403L30.4541 402.665L174.012 -0.000123963L174.954 0.335693ZM38.9544 403L182.513 0.335693L181.571 -0.000123963L38.0124 402.665L38.9544 403ZM190.071 0.335693L46.5125 403L45.5705 402.665L189.129 -0.000123963L190.071 0.335693ZM54.0708 403L197.629 0.335693L196.687 -0.000123963L53.1289 402.665L54.0708 403ZM205.187 0.335693L61.6292 403L60.6872 402.665L204.246 -0.000123963L205.187 0.335693ZM69.1875 403L212.746 0.335693L211.804 -0.000123963L68.2456 402.665L69.1875 403ZM220.304 0.335693L76.7459 403L75.8039 402.665L219.362 -0.000123963L220.304 0.335693ZM84.304 403L227.862 0.335693L226.92 -0.000123963L83.362 402.665L84.304 403ZM235.421 0.335693L91.8623 403L90.9204 402.665L234.479 -0.000123963L235.421 0.335693ZM99.4207 403L242.979 0.335693L242.037 -0.000123963L98.4787 402.665L99.4207 403ZM250.537 0.335693L106.979 403L106.037 402.665L249.595 -0.000123963L250.537 0.335693ZM114.537 403L258.095 0.335693L257.154 -0.000123963L113.595 402.665L114.537 403ZM265.654 0.335693L122.095 403L121.154 402.665L264.712 -0.000123963L265.654 0.335693ZM129.654 403L273.212 0.335693L272.27 -0.000123963L128.712 402.665L129.654 403ZM280.77 0.335693L137.212 403L136.27 402.665L279.829 -0.000123963L280.77 0.335693ZM144.77 403L288.329 0.335693L287.387 -0.000123963L143.828 402.665L144.77 403Z" fill="url(#paint0_linear_510_3968)"/>
<defs>
<linearGradient id="paint0_linear_510_3968" x1="144.275" y1="-1.77444e-08" x2="144.691" y2="402.833" gradientUnits="userSpaceOnUse">
<stop stop-color="#735340"/>
<stop offset="1" stop-color="#735340" stop-opacity="0"/>
</linearGradient>
</defs>
</svg>
