<svg width="289" height="403" viewBox="0 0 289 403" fill="none" xmlns="http://www.w3.org/2000/svg">
<path fill-rule="evenodd" clip-rule="evenodd" d="M0.941927 403.001L144.5 0.335817L143.558 0L0 402.665L0.941927 403.001ZM8.50028 403.001L152.059 0.335817L151.117 0L7.55835 402.665L8.50028 403.001ZM159.617 0.335817L16.0586 403.001L15.1167 402.665L158.675 0L159.617 0.335817ZM23.6167 403.001L167.175 0.335817L166.233 0L22.6748 402.665L23.6167 403.001ZM174.733 0.335817L31.1751 403.001L30.2332 402.665L173.791 0L174.733 0.335817ZM38.7334 403.001L182.292 0.335817L181.35 0L37.7915 402.665L38.7334 403.001ZM189.85 0.335817L46.2915 403.001L45.3496 402.665L188.908 0L189.85 0.335817ZM53.8499 403.001L197.408 0.335817L196.466 0L52.908 402.665L53.8499 403.001ZM204.967 0.335817L61.4082 403.001L60.4663 402.665L204.025 0L204.967 0.335817ZM68.9666 403.001L212.525 0.335817L211.583 0L68.0247 402.665L68.9666 403.001ZM220.083 0.335817L76.5249 403.001L75.583 402.665L219.141 0L220.083 0.335817ZM84.083 403.001L227.641 0.335817L226.699 0L83.1411 402.665L84.083 403.001ZM235.2 0.335817L91.6414 403.001L90.6995 402.665L234.258 0L235.2 0.335817ZM99.1997 403.001L242.758 0.335817L241.816 0L98.2578 402.665L99.1997 403.001ZM250.316 0.335817L106.758 403.001L105.816 402.665L249.374 0L250.316 0.335817ZM114.316 403.001L257.874 0.335817L256.933 0L113.374 402.665L114.316 403.001ZM265.433 0.335817L121.875 403.001L120.933 402.665L264.491 0L265.433 0.335817ZM129.433 403.001L272.991 0.335817L272.049 0L128.491 402.665L129.433 403.001ZM280.55 0.335817L136.991 403.001L136.049 402.665L279.608 0L280.55 0.335817ZM144.549 403.001L288.108 0.335817L287.166 0L143.607 402.665L144.549 403.001Z" fill="url(#paint0_linear_671_5761)"/>
<defs>
<linearGradient id="paint0_linear_671_5761" x1="144.054" y1="-1.77444e-08" x2="144.47" y2="402.833" gradientUnits="userSpaceOnUse">
<stop stop-color="#735340"/>
<stop offset="1" stop-color="#735340" stop-opacity="0"/>
</linearGradient>
</defs>
</svg>
