<svg width="192" height="404" viewBox="0 0 192 404" fill="none" xmlns="http://www.w3.org/2000/svg">
<path fill-rule="evenodd" clip-rule="evenodd" d="M170.227 0L171.952 1.10005L0 270.737V0H170.227Z" fill="#F4F0E7"/>
<path fill-rule="evenodd" clip-rule="evenodd" d="M-52.0706 0.534533L-309.157 403.535L-310 402.997L-52.9137 -0.00328264L-52.0706 0.534533ZM-38.429 0.534533L-295.515 403.535L-296.358 402.997L-39.2721 -0.00328264L-38.429 0.534533ZM-281.874 403.535L-24.7884 0.534533L-25.6315 -0.00328264L-282.717 402.997L-281.874 403.535ZM-11.1468 0.534533L-268.233 403.535L-269.076 402.997L-11.9899 -0.00328264L-11.1468 0.534533ZM-254.591 403.535L2.49478 0.534533L1.6517 -0.00328264L-255.434 402.997L-254.591 403.535ZM16.1354 0.534533L-240.951 403.535L-241.794 402.997L15.2923 -0.00328264L16.1354 0.534533ZM-227.308 403.534L28.7282 0.533751L27.8841 -0.00250116L-228.152 402.997L-227.308 403.534ZM42.3698 0.533751L-213.667 403.534L-214.511 402.997L41.5257 -0.00250116L42.3698 0.533751ZM-200.026 403.534L56.0104 0.533751L55.1664 -0.00250116L-200.87 402.997L-200.026 403.534ZM69.652 0.534533L-187.434 403.535L-188.277 402.997L68.8089 -0.00328264L69.652 0.534533ZM-173.793 403.535L83.2926 0.534533L82.4496 -0.00328264L-174.636 402.997L-173.793 403.535ZM96.9342 0.534533L-160.152 403.535L-160.995 402.997L96.0912 -0.00328264L96.9342 0.534533ZM-146.51 403.535L110.576 0.534533L109.733 -0.00328264L-147.353 402.997L-146.51 403.535ZM124.216 0.534533L-132.869 403.535L-133.713 402.997L123.373 -0.00328264L124.216 0.534533ZM-119.227 403.534L136.809 0.533751L135.965 -0.00250116L-120.071 402.997L-119.227 403.534ZM150.451 0.533751L-105.586 403.534L-106.43 402.997L149.607 -0.00250116L150.451 0.533751ZM-91.9452 403.534L164.091 0.533751L163.247 -0.00250116L-92.7892 402.997L-91.9452 403.534ZM177.733 0.534533L-79.3529 403.535L-80.1959 402.997L176.89 -0.00328264L177.733 0.534533ZM-65.7123 403.535L191.374 0.534533L190.531 -0.00328264L-66.5553 402.997L-65.7123 403.535Z" fill="url(#paint0_linear_1042_11335)"/>
<defs>
<linearGradient id="paint0_linear_1042_11335" x1="-98.6895" y1="402.941" x2="-98.7106" y2="0.257804" gradientUnits="userSpaceOnUse">
<stop stop-color="#735340"/>
<stop offset="1" stop-color="#735340" stop-opacity="0"/>
</linearGradient>
</defs>
</svg>
