<svg width="118" height="41" viewBox="0 0 118 41" fill="none" xmlns="http://www.w3.org/2000/svg">
<g clip-path="url(#clip0_395_3493)">
<path d="M82.347 9.68998L88.372 29.3309H93.5809V22.2289L87.1773 9.68998H90.9967L95.4079 18.2441L99.7676 9.68998H103.587L97.1944 22.2803V29.3309H109.031V31.4814H85.1996V31.213L83.6924 26.1548H76.9763L75.4692 31.213H71.7564L78.4284 9.68998H82.347ZM17.1345 9.68998V31.2682H13.2637V9.68998H17.1345ZM12.1756 0.220581V3.82307H4.27584V12.7742H8.84513V16.3766H4.27584V31.213H0.283691V0.220581H12.1756ZM25.6923 9.68998L32.3091 23.8941V9.68998H35.9153V31.213H31.8717L25.1446 16.7406V31.213H21.4686V9.68998H25.6923ZM52.8102 9.68998V12.8661H43.9878V18.4058H50.3914V21.5819H43.9841V28.037H53.3469V31.213H40.3816V9.68998H52.8102ZM63.3236 0.220581C66.5095 0.220581 68.6012 1.30501 69.5986 3.47385C70.0538 4.82162 70.3776 6.21027 70.5654 7.62039C70.836 9.26052 70.992 10.9175 71.0322 12.5793C71.0837 13.6821 71.1094 14.66 71.1094 15.4834C71.1094 16.1304 71.0837 17.1891 71.0322 18.6595C70.8019 23.2324 70.2982 26.3582 69.5214 28.037C68.4847 30.1053 66.4384 31.164 63.3824 31.213H57.317V0.220581H63.3236ZM62.7428 3.82307H61.3092V27.6105H62.7428C63.3619 27.6415 63.982 27.5757 64.5808 27.4157C65.0367 27.1879 65.4096 26.8228 65.6469 26.3717C66.0967 25.2534 66.3958 24.0803 66.5365 22.8832V22.8207C66.5365 22.7839 66.5365 22.7325 66.5548 22.6663V22.6001V22.4752C66.6173 21.8502 66.7276 20.5452 66.8967 18.5602C66.9901 17.5829 67.0282 16.601 67.0107 15.6194C67.0107 14.5092 66.9849 13.6307 66.9335 12.9837C66.7276 9.75616 66.3282 7.25157 65.7351 5.46993C65.3871 4.37202 64.3897 3.82307 62.7428 3.82307V3.82307ZM80.3583 15.3952L77.9358 22.9273H82.6705L80.3583 15.3952Z" fill="#414848" fill-opacity="0.98"/>
<path d="M43.2614 37.5095C43.2614 37.7971 43.305 38.0508 43.3921 38.2708C43.4792 38.4908 43.5947 38.676 43.7385 38.8263C43.8822 38.9744 44.0478 39.0877 44.2351 39.1661C44.4224 39.2423 44.6174 39.2804 44.82 39.2804C44.9746 39.2804 45.1184 39.2543 45.2512 39.202C45.3863 39.1476 45.5115 39.0746 45.627 38.9831C45.7446 38.8916 45.8546 38.786 45.957 38.6662C46.0594 38.5464 46.1574 38.42 46.2511 38.2872L46.7052 38.6204C46.6072 38.7773 46.4885 38.9287 46.3491 39.0746C46.2119 39.2205 46.0572 39.3491 45.8851 39.4602C45.713 39.5712 45.5257 39.6605 45.3231 39.7281C45.1206 39.7934 44.906 39.8261 44.6795 39.8261C44.2983 39.8261 43.9465 39.7706 43.6241 39.6595C43.3039 39.5484 43.0273 39.3915 42.7942 39.189C42.5611 38.9864 42.3792 38.7435 42.2485 38.4603C42.1178 38.175 42.0525 37.858 42.0525 37.5095C42.0525 37.1719 42.1146 36.8615 42.2387 36.5783C42.3629 36.2952 42.5372 36.0512 42.7615 35.8464C42.988 35.6395 43.2581 35.4783 43.5718 35.3629C43.8877 35.2474 44.2362 35.1897 44.6174 35.1897C44.8722 35.1897 45.1053 35.2202 45.3166 35.2812C45.5279 35.34 45.7196 35.4228 45.8917 35.5295C46.0659 35.6341 46.2206 35.7604 46.3556 35.9085C46.4928 36.0545 46.6137 36.2157 46.7183 36.3921L46.2609 36.7123C46.1672 36.5794 46.0648 36.4542 45.9537 36.3365C45.8448 36.2189 45.7283 36.1165 45.6041 36.0294C45.48 35.9401 45.3493 35.8704 45.212 35.8203C45.0748 35.768 44.9321 35.7419 44.784 35.7419C44.5814 35.7419 44.3876 35.78 44.2024 35.8562C44.0194 35.9325 43.8583 36.0457 43.7188 36.196C43.5794 36.3442 43.4684 36.5282 43.3856 36.7482C43.3028 36.9682 43.2614 37.222 43.2614 37.5095Z" fill="#414848"/>
<path d="M49.1755 35.2975H50.2635V39.2739H52.5245V39.7281H49.1755V35.2975Z" fill="#414848"/>
<path d="M54.7661 35.2975H55.8541V38.1467C55.8541 38.3166 55.8803 38.4767 55.9325 38.627C55.987 38.7773 56.0632 38.9091 56.1613 39.0223C56.2615 39.1334 56.3813 39.2216 56.5207 39.287C56.6623 39.3523 56.8213 39.385 56.9977 39.385C57.1698 39.385 57.3255 39.3523 57.4649 39.287C57.6043 39.2216 57.7231 39.1334 57.8211 39.0223C57.9191 38.9091 57.9943 38.7773 58.0465 38.627C58.101 38.4767 58.1282 38.3166 58.1282 38.1467V35.2975H58.8144V38.1467C58.8144 38.3754 58.7752 38.5921 58.6967 38.7969C58.6205 38.9995 58.4996 39.177 58.3341 39.3295C58.1685 39.4819 57.9561 39.6028 57.6969 39.6921C57.4377 39.7814 57.1262 39.8261 56.7625 39.8261C56.4379 39.8261 56.1504 39.7814 55.8999 39.6921C55.6515 39.6028 55.4435 39.4819 55.2758 39.3295C55.1081 39.1748 54.9806 38.9951 54.8935 38.7903C54.8086 38.5856 54.7661 38.3678 54.7661 38.1369V35.2975Z" fill="#414848"/>
<path d="M61.4676 35.2975H63.3692C63.6241 35.2975 63.8571 35.3247 64.0684 35.3792C64.2819 35.4337 64.4649 35.511 64.6173 35.6112C64.7698 35.7092 64.8885 35.8279 64.9735 35.9673C65.0584 36.1067 65.1009 36.2614 65.1009 36.4313C65.1009 36.5359 65.0889 36.6328 65.065 36.7221C65.0432 36.8114 65.0062 36.8953 64.9539 36.9737C64.9016 37.0521 64.8319 37.1272 64.7448 37.1991C64.6598 37.271 64.5542 37.344 64.4278 37.418C64.5585 37.4594 64.6783 37.515 64.7872 37.5847C64.8962 37.6522 64.9898 37.7328 65.0682 37.8265C65.1488 37.918 65.2109 38.0203 65.2545 38.1336C65.3002 38.2447 65.3231 38.3634 65.3231 38.4897C65.3231 38.664 65.2828 38.8263 65.2022 38.9766C65.1238 39.1269 65.0105 39.2576 64.8624 39.3687C64.7165 39.4798 64.54 39.568 64.3331 39.6333C64.1283 39.6965 63.9007 39.7281 63.6502 39.7281H61.4676V35.2975ZM62.5556 37.2187H63.2712C63.3866 37.2187 63.489 37.2013 63.5783 37.1665C63.6698 37.1294 63.746 37.0793 63.807 37.0162C63.8702 36.9508 63.9181 36.8735 63.9508 36.7842C63.9835 36.6949 63.9998 36.5979 63.9998 36.4934C63.9998 36.3779 63.9791 36.2723 63.9377 36.1764C63.8963 36.0806 63.8332 35.9989 63.7482 35.9314C63.6633 35.8617 63.5555 35.8083 63.4248 35.7713C63.2941 35.7321 63.1394 35.7125 62.9608 35.7125H62.5556V37.2187ZM62.5556 39.2739H63.1568C63.3333 39.2739 63.4857 39.2554 63.6143 39.2184C63.7428 39.1792 63.8484 39.1269 63.9312 39.0615C64.0161 38.994 64.0782 38.9145 64.1174 38.823C64.1588 38.7293 64.1795 38.6281 64.1795 38.5191C64.1795 38.395 64.161 38.2806 64.124 38.1761C64.0869 38.0693 64.026 37.9768 63.941 37.8983C63.8582 37.8199 63.7482 37.7589 63.611 37.7154C63.4759 37.6718 63.3104 37.65 63.1144 37.65H62.5556V39.2739Z" fill="#414848"/>
<path d="M109.035 37.5688H67.04V38.1202H109.035V37.5688Z" fill="#414848"/>
<path d="M39.6207 37.5688H0.283691V38.1202H39.6207V37.5688Z" fill="#414848"/>
<path d="M116.883 29.8272H115.604L115.005 29.2243H115.207C115.247 29.2129 115.282 29.1888 115.307 29.1557C115.332 29.1225 115.346 29.0821 115.346 29.0405C115.346 28.999 115.332 28.9586 115.307 28.9254C115.282 28.8923 115.247 28.8682 115.207 28.8567H114.622L114.2 28.434H114.372C114.41 28.4283 114.444 28.4093 114.468 28.3807C114.493 28.352 114.506 28.3155 114.506 28.2778C114.506 28.24 114.493 28.2035 114.468 28.1748C114.444 28.1462 114.41 28.1273 114.372 28.1215H113.887L112.7 26.9379C112.666 26.9051 112.623 26.8851 112.576 26.881C112.529 26.877 112.483 26.8892 112.444 26.9157C112.406 26.9421 112.377 26.9811 112.364 27.0261C112.351 27.071 112.354 27.1191 112.373 27.1621L113.902 29.8382L111.274 30.0257L110.274 28.9229C110.252 28.8972 110.163 28.9413 110.134 28.9597C110.105 28.978 110.027 29.0516 110.038 29.081L110.564 30.1103L110.715 30.4227L110.627 30.6102L110.557 30.7499L110.06 31.7571C110.06 31.7865 110.13 31.8564 110.16 31.8747C110.189 31.8931 110.274 31.9372 110.296 31.9115L111.321 30.8087L113.92 30.9852L112.376 33.6613C112.357 33.7045 112.353 33.7533 112.366 33.799C112.379 33.8447 112.407 33.8844 112.446 33.9113C112.479 33.9354 112.519 33.9483 112.56 33.948C112.587 33.9481 112.613 33.943 112.638 33.9329C112.662 33.9228 112.685 33.908 112.704 33.8892L113.88 32.7129H114.376C114.413 32.7071 114.447 32.6882 114.472 32.6596C114.497 32.6309 114.51 32.5944 114.51 32.5566C114.51 32.5189 114.497 32.4824 114.472 32.4537C114.447 32.4251 114.413 32.4062 114.376 32.4004H114.192L114.615 31.9777H115.207C115.235 31.9858 115.265 31.9872 115.294 31.9818C115.323 31.9764 115.351 31.9643 115.375 31.9465C115.398 31.9287 115.417 31.9056 115.43 31.8791C115.444 31.8526 115.451 31.8235 115.451 31.7939C115.451 31.7643 115.444 31.7351 115.43 31.7086C115.417 31.6821 115.398 31.6591 115.375 31.6413C115.351 31.6235 115.323 31.6114 115.294 31.606C115.265 31.6005 115.235 31.6019 115.207 31.6101H114.994L115.604 30.9999H116.883C117.199 30.9999 118.023 30.7389 118.023 30.4227C118.023 30.1066 117.199 29.8272 116.883 29.8272Z" fill="#414848" fill-opacity="0.98"/>
</g>
<defs>
<clipPath id="clip0_395_3493">
<rect width="118" height="40.7339" fill="white"/>
</clipPath>
</defs>
</svg>
