<svg width="56" height="46" viewBox="0 0 56 46" fill="none" xmlns="http://www.w3.org/2000/svg">
<g opacity="0.8" clip-path="url(#clip0_305_1454)">
<g clip-path="url(#clip1_305_1454)">
<path d="M54.1184 27.3912H52.6904L52.0181 26.7189H52.2452C52.2756 26.7234 52.3065 26.7213 52.336 26.7128C52.3654 26.7042 52.3927 26.6895 52.4159 26.6694C52.4391 26.6494 52.4577 26.6246 52.4705 26.5967C52.4833 26.5689 52.4899 26.5386 52.4899 26.5079C52.4899 26.4773 52.4833 26.447 52.4705 26.4191C52.4577 26.3912 52.4391 26.3664 52.4159 26.3464C52.3927 26.3264 52.3654 26.3116 52.336 26.3031C52.3065 26.2946 52.2756 26.2925 52.2452 26.297H51.5822L51.1186 25.8333H51.3133C51.3588 25.8333 51.4025 25.8153 51.4346 25.7831C51.4668 25.7509 51.4849 25.7073 51.4849 25.6618C51.4849 25.6163 51.4668 25.5727 51.4346 25.5405C51.4025 25.5083 51.3588 25.4903 51.3133 25.4903H50.7709L49.4495 24.1457C49.4124 24.1072 49.3629 24.0831 49.3098 24.0775C49.2566 24.072 49.2032 24.0853 49.1589 24.1152C49.1147 24.1451 49.0823 24.1896 49.0676 24.241C49.0529 24.2924 49.0568 24.3472 49.0786 24.396L50.7894 27.3865L47.8499 27.5952L46.7372 26.3573C46.7094 26.3573 46.612 26.3572 46.5795 26.4036C46.5471 26.45 46.459 26.501 46.4729 26.5381L47.0571 27.6879L47.2286 28.0356L47.1313 28.2443L47.0525 28.4019L46.4822 29.5286C46.4822 29.561 46.561 29.6398 46.5934 29.663C46.6259 29.6862 46.7233 29.7279 46.7465 29.7001L47.8917 28.4715L50.794 28.6662L49.0693 31.6567C49.049 31.7051 49.0457 31.759 49.06 31.8096C49.0743 31.8601 49.1054 31.9043 49.1481 31.9349C49.1861 31.9617 49.2314 31.9763 49.2779 31.9766C49.3083 31.9764 49.3382 31.9702 49.3661 31.9582C49.394 31.9463 49.4192 31.9289 49.4402 31.907L50.7523 30.5949H51.3041C51.3293 30.5991 51.3551 30.5977 51.3797 30.5908C51.4043 30.584 51.4271 30.5719 51.4466 30.5553C51.4661 30.5388 51.4817 30.5182 51.4924 30.495C51.5032 30.4718 51.5087 30.4466 51.5087 30.4211C51.5087 30.3955 51.5032 30.3703 51.4924 30.3471C51.4817 30.3239 51.4661 30.3033 51.4466 30.2868C51.4271 30.2702 51.4043 30.2582 51.3797 30.2513C51.3551 30.2445 51.3293 30.2431 51.3041 30.2472H51.1186L51.5822 29.7836H52.2452C52.2734 29.7842 52.3014 29.7791 52.3276 29.7686C52.3538 29.7581 52.3775 29.7424 52.3975 29.7225C52.4174 29.7026 52.4331 29.6788 52.4436 29.6526C52.4541 29.6265 52.4592 29.5985 52.4585 29.5703C52.4585 29.5137 52.4361 29.4595 52.3961 29.4195C52.3561 29.3795 52.3018 29.357 52.2452 29.357H52.0088L52.6904 28.6755H54.1184C54.4754 28.6755 55.3934 28.3834 55.3934 28.031C55.3934 27.6786 54.4754 27.3912 54.1184 27.3912Z" fill="#222222" fill-opacity="0.98"/>
<path d="M26.3232 0.759644V4.79796H17.4631V14.8265H22.5631V18.8648H17.4631V27.0528H26.2722V10.408H33.2269C36.6516 10.4637 38.9173 11.6799 40.0239 14.0569C40.5325 15.5642 40.8958 17.1168 41.1088 18.6933C41.4088 20.5338 41.5823 22.3928 41.6281 24.257C41.6806 25.3017 41.7084 26.229 41.7115 27.0389H45.0265V29.4498H41.6791C41.6791 29.9134 41.6512 30.4652 41.6281 31.0633C41.3684 36.185 40.8043 39.687 39.9358 41.5694C38.7767 43.8876 36.4832 45.073 33.0553 45.1255H26.2583V29.4637H17.4491V35.491H12.9796V29.4637H8.24121V27.0528H12.9935V0.759644H26.3232ZM30.7186 29.4637V41.1058H32.3228C33.0176 41.1402 33.7136 41.0667 34.386 40.8878C34.897 40.6323 35.3141 40.2218 35.5775 39.7148C36.0844 38.4626 36.4212 37.1481 36.579 35.8063V35.7368C36.579 35.6951 36.579 35.6348 36.579 35.5652V35.4864V35.3473C36.6486 34.6472 36.7737 33.1821 36.9592 30.9613C37.0102 30.595 37.0426 30.1035 37.0658 29.4776L30.7186 29.4637ZM32.3228 14.4464H30.7186V27.0528H37.14C37.14 26.1672 37.1076 25.4347 37.0658 24.8505V24.6928C36.834 21.0764 36.3858 18.2683 35.7213 16.2685C35.3179 15.0537 34.1912 14.4464 32.3367 14.4464H32.3228Z" fill="#222222"/>
</g>
</g>
<defs>
<clipPath id="clip0_305_1454">
<rect width="56" height="45" fill="white" transform="translate(0 0.5)"/>
</clipPath>
<clipPath id="clip1_305_1454">
<rect width="47.7551" height="44.9733" fill="white" transform="translate(8 0.5)"/>
</clipPath>
</defs>
</svg>
