<svg width="56" height="56" viewBox="0 0 56 56" fill="none" xmlns="http://www.w3.org/2000/svg">
<g clip-path="url(#clip0_835_6847)">
<path d="M37.9893 25.0141C38.1522 25.1767 38.2815 25.3698 38.3698 25.5824C38.458 25.795 38.5034 26.0229 38.5034 26.2531C38.5034 26.4833 38.458 26.7112 38.3698 26.9238C38.2815 27.1365 38.1522 27.3296 37.9893 27.4921L27.4893 37.9921C27.3267 38.1551 27.1336 38.2844 26.921 38.3726C26.7084 38.4608 26.4804 38.5063 26.2503 38.5063C26.0201 38.5063 25.7921 38.4608 25.5795 38.3726C25.3669 38.2844 25.1738 38.1551 25.0113 37.9921L19.7613 32.7421C19.5986 32.5794 19.4695 32.3863 19.3814 32.1737C19.2934 31.9611 19.248 31.7332 19.248 31.5031C19.248 31.273 19.2934 31.0452 19.3814 30.8326C19.4695 30.62 19.5986 30.4268 19.7613 30.2641C20.0899 29.9355 20.5355 29.7509 21.0003 29.7509C21.2304 29.7509 21.4582 29.7962 21.6708 29.8843C21.8834 29.9724 22.0766 30.1014 22.2393 30.2641L26.2503 34.2786L35.5113 25.0141C35.6738 24.8512 35.8669 24.7219 36.0795 24.6336C36.2922 24.5454 36.5201 24.5 36.7503 24.5C36.9804 24.5 37.2084 24.5454 37.421 24.6336C37.6336 24.7219 37.8267 24.8512 37.9893 25.0141Z" fill="url(#paint0_linear_835_6847)"/>
<path d="M12.25 0C12.7141 0 13.1592 0.184374 13.4874 0.512563C13.8156 0.840752 14 1.28587 14 1.75V3.5H42V1.75C42 1.28587 42.1844 0.840752 42.5126 0.512563C42.8408 0.184374 43.2859 0 43.75 0C44.2141 0 44.6592 0.184374 44.9874 0.512563C45.3156 0.840752 45.5 1.28587 45.5 1.75V3.5H49C50.8565 3.5 52.637 4.2375 53.9497 5.55025C55.2625 6.86301 56 8.64348 56 10.5V49C56 50.8565 55.2625 52.637 53.9497 53.9497C52.637 55.2625 50.8565 56 49 56H7C5.14348 56 3.36301 55.2625 2.05025 53.9497C0.737498 52.637 0 50.8565 0 49V10.5C0 8.64348 0.737498 6.86301 2.05025 5.55025C3.36301 4.2375 5.14348 3.5 7 3.5H10.5V1.75C10.5 1.28587 10.6844 0.840752 11.0126 0.512563C11.3408 0.184374 11.7859 0 12.25 0V0ZM3.5 14V49C3.5 49.9283 3.86875 50.8185 4.52513 51.4749C5.1815 52.1312 6.07174 52.5 7 52.5H49C49.9283 52.5 50.8185 52.1312 51.4749 51.4749C52.1312 50.8185 52.5 49.9283 52.5 49V14H3.5Z" fill="url(#paint1_linear_835_6847)"/>
</g>
<defs>
<linearGradient id="paint0_linear_835_6847" x1="21.5652" y1="40.0906" x2="15.1672" y2="26.4083" gradientUnits="userSpaceOnUse">
<stop stop-color="#2B414B"/>
<stop offset="1" stop-color="#5F7681"/>
</linearGradient>
<linearGradient id="paint1_linear_835_6847" x1="6.73887" y1="62.3345" x2="-23.586" y2="15.1625" gradientUnits="userSpaceOnUse">
<stop stop-color="#2B414B"/>
<stop offset="1" stop-color="#5F7681"/>
</linearGradient>
<clipPath id="clip0_835_6847">
<rect width="56" height="56" fill="white"/>
</clipPath>
</defs>
</svg>
