<svg width="25" height="25" viewBox="0 0 25 25" fill="none" xmlns="http://www.w3.org/2000/svg">
<path d="M10.2682 12.9399L5.57812 8.24707V16.5327C5.57857 16.6059 5.58478 16.679 5.5967 16.7513C5.61792 16.9574 5.75322 17.1341 5.9467 17.2084C5.96747 17.2204 5.9939 17.2148 6.00813 17.1956L10.2411 12.9599L10.2682 12.9399Z" fill="#555555"/>
<path d="M14.1155 13.6027C13.6574 14.0579 13.1998 14.5156 12.7427 14.9755C12.6884 15.037 12.6104 15.0723 12.5284 15.0723C12.4464 15.0723 12.3683 15.037 12.3141 14.9755L10.8855 13.547L10.8598 13.5227L7.12256 17.267H17.837L14.1427 13.5713L14.1155 13.6027Z" fill="#555555"/>
<path d="M7.36404 8.83712L12.3198 13.7842C12.3725 13.8484 12.4511 13.8856 12.5341 13.8856C12.6171 13.8856 12.6958 13.8484 12.7484 13.7842C12.8399 13.6942 12.9299 13.6042 13.0199 13.5128L18.7342 7.79855C18.7439 7.79146 18.7545 7.7857 18.7657 7.78141L18.7557 7.76855H6.30688L6.29688 7.78141C6.30776 7.78579 6.31827 7.79104 6.3283 7.79713L7.36404 8.83712Z" fill="#555555"/>
<path d="M19.517 8.20996C17.9255 9.80328 16.3365 11.3937 14.7498 12.9813C14.7583 12.9874 14.7664 12.9941 14.774 13.0013C15.4855 13.7156 16.1998 14.4299 16.9169 15.1442L18.977 17.2099C18.9884 17.2246 19.0083 17.2299 19.0255 17.2227C19.2259 17.1644 19.3856 17.0127 19.4541 16.8156C19.5034 16.6664 19.5262 16.5098 19.5213 16.3527V8.20996L19.517 8.20996Z" fill="#555555"/>
<path fill-rule="evenodd" clip-rule="evenodd" d="M5.82224e-05 12.4621C0.0208608 5.57361 5.61096 0.000287919 12.4997 0C19.4024 0.00236536 24.9976 5.59737 24.9999 12.4999V12.6142C24.937 19.5024 19.3128 25.0414 12.4242 24.9995C5.5356 24.9576 -0.0207444 19.3507 5.82224e-05 12.4621ZM20.357 16.5598V16.5341L20.3599 8.24992C20.353 8.22702 20.3465 8.20207 20.3398 8.17618C20.334 8.15362 20.3279 8.13034 20.3213 8.10707C20.1587 7.51397 19.6815 7.05936 19.0813 6.92565C19.0268 6.91226 18.9703 6.90528 18.9137 6.89826C18.8857 6.8948 18.8577 6.89133 18.8298 6.88708H18.8013H6.21817C6.19769 6.88993 6.17722 6.89247 6.15674 6.89501C6.11579 6.90009 6.07483 6.90517 6.03388 6.91279C5.32934 7.03453 4.77905 7.58883 4.66242 8.29421C4.65499 8.33562 4.64993 8.3786 4.64488 8.42141C4.64314 8.43619 4.6414 8.45096 4.63956 8.46563V9.10706V9.16277V14.2656C4.64032 14.2794 4.64032 14.2932 4.63956 14.307V16.5298C4.64242 16.5503 4.64512 16.571 4.64782 16.5916C4.65322 16.6329 4.65861 16.6741 4.66528 16.7141C4.72109 17.0728 4.89505 17.4026 5.15957 17.6513C5.41372 17.8963 5.73964 18.0535 6.08959 18.0998C6.14921 18.1084 6.20937 18.1127 6.2696 18.1127H10.9325H14.0655H14.104H18.8055C18.8253 18.1097 18.8458 18.1069 18.8667 18.1041C18.9153 18.0976 18.9661 18.0908 19.0141 18.0798C19.5464 17.9758 19.9943 17.6185 20.2141 17.1227C20.2966 16.9457 20.345 16.7547 20.357 16.5598Z" fill="#555555"/>
</svg>
