<svg width="55" height="55" viewBox="0 0 55 55" fill="none" xmlns="http://www.w3.org/2000/svg">
<path d="M0 8C0 3.58172 3.58172 0 8 0H47C51.4183 0 55 3.58172 55 8V47C55 51.4183 51.4183 55 47 55H8C3.58172 55 0 51.4183 0 47V8Z" fill="#DFDFDF"/>
<path d="M41 27.5C41 31.0804 39.5777 34.5142 37.0459 37.0459C34.5142 39.5777 31.0804 41 27.5 41C23.9196 41 20.4858 39.5777 17.9541 37.0459C15.4223 34.5142 14 31.0804 14 27.5C14 23.9196 15.4223 20.4858 17.9541 17.9541C20.4858 15.4223 23.9196 14 27.5 14C31.0804 14 34.5142 15.4223 37.0459 17.9541C39.5777 20.4858 41 23.9196 41 27.5V27.5ZM23.2745 24.1807H24.6667C24.8996 24.1807 25.0852 23.99 25.1156 23.7588C25.2674 22.6518 26.0268 21.8452 27.3802 21.8452C28.5378 21.8452 29.5976 22.424 29.5976 23.8162C29.5976 24.8877 28.9664 25.3805 27.9691 26.1298C26.8334 26.9549 25.934 27.9185 25.9981 29.4828L26.0032 29.849C26.005 29.9597 26.0502 30.0653 26.1291 30.143C26.208 30.2206 26.3143 30.2641 26.4251 30.2641H27.7936C27.9055 30.2641 28.0128 30.2197 28.0919 30.1406C28.1711 30.0614 28.2155 29.9541 28.2155 29.8422V29.6651C28.2155 28.4534 28.6762 28.1007 29.9199 27.1574C30.9476 26.3761 32.0191 25.5088 32.0191 23.6879C32.0191 21.1381 29.8659 19.9062 27.5084 19.9062C25.3704 19.9062 23.0281 20.9019 22.8678 23.7639C22.8655 23.8184 22.8744 23.8728 22.8939 23.9237C22.9133 23.9747 22.943 24.0211 22.9811 24.0601C23.0192 24.0992 23.0649 24.13 23.1154 24.1507C23.1658 24.1715 23.22 24.1817 23.2745 24.1807V24.1807ZM27.1979 35.0532C28.2273 35.0532 28.9344 34.3884 28.9344 33.4889C28.9344 32.5574 28.2256 31.9027 27.1979 31.9027C26.2124 31.9027 25.4952 32.5574 25.4952 33.4889C25.4952 34.3884 26.2124 35.0532 27.1996 35.0532H27.1979Z" fill="#222222"/>
</svg>
