<svg width="25" height="25" viewBox="0 0 25 25" fill="none" xmlns="http://www.w3.org/2000/svg">
<path fill-rule="evenodd" clip-rule="evenodd" d="M12.4997 0C5.61096 0.000287919 0.0208608 5.57361 5.82224e-05 12.4621C-0.0207444 19.3507 5.5356 24.9576 12.4242 24.9995C19.3128 25.0414 24.937 19.5024 24.9999 12.6142V12.4999C24.9976 5.59737 19.4024 0.00236536 12.4997 0ZM12.3569 7.61421C12.9725 7.65213 13.5768 7.79716 14.1426 8.04278C16.2255 8.98134 17.3812 10.5956 17.6212 12.867V12.9227C17.627 13.0882 17.5007 13.2284 17.3355 13.2399C17.2554 13.2471 17.1759 13.2202 17.1166 13.1659C17.0574 13.1115 17.0238 13.0346 17.0241 12.9542C16.9856 12.3702 16.8459 11.7974 16.6112 11.2613C15.7855 9.4842 14.4012 8.46563 12.4526 8.22421L12.2854 8.20278C12.2057 8.19946 12.1306 8.16436 12.0769 8.10531C12.0232 8.04626 11.9954 7.96818 11.9997 7.8885C12.0076 7.80342 12.0507 7.72549 12.1184 7.67344C12.1862 7.6214 12.2726 7.59993 12.3569 7.61421ZM12.2997 9.40848C12.0697 9.38277 11.9168 9.47562 11.8911 9.65705C11.864 9.84562 11.9883 9.97276 12.2383 9.9999C13.1472 10.0776 13.9822 10.5318 14.5412 11.2528C14.9471 11.7696 15.1893 12.3959 15.2369 13.0513C15.2363 13.1333 15.2699 13.2119 15.3295 13.2682C15.389 13.3245 15.4694 13.3536 15.5512 13.3484C15.637 13.3402 15.7158 13.2976 15.7696 13.2303C15.8235 13.163 15.8477 13.0768 15.8369 12.9913C15.8326 12.9593 15.8286 12.9252 15.8245 12.8898C15.8147 12.8066 15.8039 12.7157 15.7869 12.6256C15.4426 10.837 14.1183 9.61134 12.2997 9.40848ZM18.5384 18.4384C18.0298 19.2112 17.2927 19.5812 16.3955 19.6598C15.2069 19.7712 14.094 19.457 13.0454 18.9455C10.0515 17.5049 7.64688 15.0746 6.23817 12.0656C5.82788 11.2378 5.5962 10.333 5.55815 9.40991C5.53101 8.50135 5.72101 7.65707 6.41531 7.0085C6.81389 6.63137 7.27247 6.34851 7.85677 6.35994C8.28968 6.35461 8.69844 6.55898 8.95393 6.90851C9.46108 7.59993 9.95395 8.29992 10.4297 9.01706C10.8405 9.66303 10.6813 10.5167 10.0654 10.9713C9.91079 11.0908 9.74914 11.2032 9.58838 11.315L9.58835 11.315L9.58829 11.315C9.52029 11.3623 9.45245 11.4095 9.38537 11.457C9.90681 12.5056 12.5126 15.1184 13.7783 15.8598L14.1426 15.3327C14.7226 14.5027 15.5712 14.3513 16.4084 14.9341C16.6193 15.0797 16.8272 15.2278 17.0347 15.3757L17.0348 15.3757C17.3892 15.6283 17.7426 15.88 18.1084 16.117C18.857 16.5956 19.1698 17.4755 18.5384 18.4384ZM18.8227 12.857C18.8378 13.0189 18.9807 13.1382 19.1427 13.1242C19.3107 13.1091 19.4347 12.9607 19.4198 12.7927C19.4192 12.7726 19.416 12.7524 19.4128 12.7322C19.4092 12.7095 19.4056 12.6869 19.4056 12.6642H19.417C19.406 12.5877 19.3957 12.511 19.3855 12.4342C19.3678 12.3017 19.3501 12.1691 19.3284 12.037C18.7589 8.63623 15.9324 6.06912 12.4926 5.82852C12.4094 5.81102 12.3227 5.82828 12.2525 5.8763C12.1824 5.92432 12.1349 5.99892 12.1211 6.0828C12.0983 6.25994 12.2168 6.39137 12.4354 6.42137C12.5225 6.43365 12.6111 6.44294 12.7004 6.4523C12.85 6.46796 13.0012 6.48381 13.1497 6.51422C15.9041 7.08279 17.7141 8.7142 18.5584 11.3927C18.6585 11.7086 18.705 12.0462 18.7516 12.3837C18.7734 12.5423 18.7953 12.7008 18.8227 12.857Z" fill="#555555"/>
</svg>
