<svg width="40" height="41" viewBox="0 0 40 41" fill="none" xmlns="http://www.w3.org/2000/svg">
<rect y="0.733887" width="40" height="40" rx="20" fill="#222222"/>
<path d="M15.8809 10.7339C12.6527 10.7339 10 13.383 10 16.6148V24.853C10 28.0812 12.6491 30.7339 15.8809 30.7339H24.1191C27.3473 30.7339 30 28.0848 30 24.853V16.6157C30 13.3866 27.3509 10.7339 24.1191 10.7339H15.8809ZM15.8809 12.5521H24.1191C24.6528 12.5514 25.1814 12.6559 25.6747 12.8599C26.1679 13.0638 26.6161 13.363 26.9935 13.7404C27.3709 14.1178 27.6701 14.566 27.874 15.0592C28.0779 15.5524 28.1825 16.0811 28.1818 16.6148V24.853C28.1825 25.3867 28.0779 25.9153 27.874 26.4086C27.6701 26.9018 27.3709 27.35 26.9935 27.7274C26.6161 28.1048 26.1679 28.404 25.6747 28.6079C25.1814 28.8118 24.6528 28.9164 24.1191 28.9157H15.8818C15.348 28.9165 14.8193 28.812 14.326 28.6082C13.8326 28.4043 13.3843 28.1051 13.0068 27.7277C12.6293 27.3503 12.33 26.9021 12.1261 26.4088C11.9221 25.9155 11.8175 25.3868 11.8182 24.853V16.6157C11.8173 16.0819 11.9219 15.5532 12.1257 15.0598C12.3296 14.5665 12.6288 14.1182 13.0062 13.7407C13.3836 13.3632 13.8318 13.0639 14.3251 12.8599C14.8184 12.656 15.3471 12.5514 15.8809 12.5521ZM25.3691 14.5412C25.2608 14.5407 25.1535 14.5617 25.0533 14.6029C24.9532 14.6441 24.8622 14.7047 24.7856 14.7813C24.709 14.8579 24.6484 14.9489 24.6072 15.049C24.5659 15.1492 24.545 15.2565 24.5455 15.3648C24.5455 15.823 24.9109 16.1884 25.3691 16.1884C25.4775 16.189 25.5849 16.1681 25.6851 16.127C25.7854 16.0858 25.8765 16.0252 25.9532 15.9486C26.0298 15.872 26.0906 15.781 26.1318 15.6808C26.1731 15.5806 26.1941 15.4732 26.1936 15.3648C26.1941 15.2564 26.1731 15.149 26.1318 15.0488C26.0906 14.9486 26.0298 14.8576 25.9532 14.781C25.8765 14.7044 25.7854 14.6438 25.6851 14.6026C25.5849 14.5614 25.4775 14.5406 25.3691 14.5412ZM20 15.2793C17 15.2793 14.5455 17.7339 14.5455 20.7339C14.5455 23.7339 17 26.1884 20 26.1884C23 26.1884 25.4545 23.7339 25.4545 20.7339C25.4545 17.7339 23 15.2793 20 15.2793ZM20 17.0975C22.0209 17.0975 23.6364 18.713 23.6364 20.7339C23.6364 22.7548 22.0209 24.3703 20 24.3703C17.9791 24.3703 16.3636 22.7548 16.3636 20.7339C16.3636 18.713 17.9791 17.0975 20 17.0975Z" fill="white"/>
</svg>
