<svg width="40" height="40" viewBox="0 0 40 40" fill="none" xmlns="http://www.w3.org/2000/svg">
<path d="M15.8809 10C12.6527 10 10 12.6491 10 15.8809V24.1191C10 27.3473 12.6491 30 15.8809 30H24.1191C27.3473 30 30 27.3509 30 24.1191V15.8818C30 12.6527 27.3509 10 24.1191 10H15.8809ZM15.8809 11.8182H24.1191C24.6528 11.8175 25.1814 11.9221 25.6747 12.126C26.1679 12.3299 26.6161 12.6291 26.9935 13.0065C27.3709 13.3839 27.6701 13.8321 27.874 14.3253C28.0779 14.8186 28.1825 15.3472 28.1818 15.8809V24.1191C28.1825 24.6528 28.0779 25.1814 27.874 25.6747C27.6701 26.1679 27.3709 26.6161 26.9935 26.9935C26.6161 27.3709 26.1679 27.6701 25.6747 27.874C25.1814 28.0779 24.6528 28.1825 24.1191 28.1818H15.8818C15.348 28.1827 14.8193 28.0781 14.326 27.8743C13.8326 27.6704 13.3843 27.3712 13.0068 26.9938C12.6293 26.6164 12.33 26.1682 12.1261 25.6749C11.9221 25.1816 11.8175 24.6529 11.8182 24.1191V15.8818C11.8173 15.348 11.9219 14.8193 12.1257 14.326C12.3296 13.8326 12.6288 13.3843 13.0062 13.0068C13.3836 12.6293 13.8318 12.33 14.3251 12.1261C14.8184 11.9221 15.3471 11.8175 15.8809 11.8182V11.8182ZM25.3691 13.8073C25.2608 13.8068 25.1535 13.8278 25.0533 13.869C24.9532 13.9102 24.8622 13.9709 24.7856 14.0474C24.709 14.124 24.6484 14.215 24.6072 14.3151C24.5659 14.4153 24.545 14.5226 24.5455 14.6309C24.5455 15.0891 24.9109 15.4545 25.3691 15.4545C25.4775 15.4551 25.5849 15.4343 25.6851 15.3931C25.7854 15.3519 25.8765 15.2913 25.9532 15.2147C26.0298 15.1381 26.0906 15.0471 26.1318 14.9469C26.1731 14.8467 26.1941 14.7393 26.1936 14.6309C26.1941 14.5225 26.1731 14.4151 26.1318 14.3149C26.0906 14.2147 26.0298 14.1237 25.9532 14.0471C25.8765 13.9705 25.7854 13.9099 25.6851 13.8687C25.5849 13.8276 25.4775 13.8067 25.3691 13.8073V13.8073ZM20 14.5455C17 14.5455 14.5455 17 14.5455 20C14.5455 23 17 25.4545 20 25.4545C23 25.4545 25.4545 23 25.4545 20C25.4545 17 23 14.5455 20 14.5455ZM20 16.3636C22.0209 16.3636 23.6364 17.9791 23.6364 20C23.6364 22.0209 22.0209 23.6364 20 23.6364C17.9791 23.6364 16.3636 22.0209 16.3636 20C16.3636 17.9791 17.9791 16.3636 20 16.3636Z" fill="black" fill-opacity="0.68"/>
</svg>
