<svg width="40" height="41" viewBox="0 0 40 41" fill="none" xmlns="http://www.w3.org/2000/svg">
<rect y="0.733887" width="40" height="40" rx="20" fill="#222222"/>
<path d="M20.0001 10.7339C25.7868 10.7339 30.4952 14.5541 30.4952 19.2507C30.4952 21.1307 29.7671 22.823 28.2453 24.4904C26.044 27.025 21.1204 30.1119 20.0001 30.5842C18.9112 31.0434 19.0371 30.3258 19.087 30.0424L19.0909 30.0188L19.2405 29.1201C19.2759 28.8525 19.3126 28.4366 19.2064 28.1716C19.0883 27.8791 18.6239 27.7269 18.2828 27.6534C13.2385 26.9883 9.50488 23.4606 9.50488 19.2507C9.50488 14.5541 14.2146 10.7339 20.0001 10.7339ZM16.0932 20.8171H14.0926V17.1858C14.0926 17.1317 14.0712 17.0799 14.0331 17.0415C13.995 17.0032 13.9433 16.9815 13.8892 16.9811H13.152C13.1251 16.9811 13.0985 16.9864 13.0736 16.9967C13.0488 17.007 13.0262 17.0221 13.0072 17.0411C12.9882 17.0601 12.9732 17.0826 12.9629 17.1075C12.9526 17.1323 12.9473 17.1589 12.9473 17.1858V21.7591C12.9473 21.8129 12.9696 21.864 13.005 21.8994V21.9008L13.0076 21.9034L13.0103 21.906C13.0483 21.9426 13.0992 21.9628 13.152 21.9624H16.0932C16.2061 21.9624 16.2966 21.8706 16.2966 21.7578V21.0231C16.2967 20.9962 16.2916 20.9696 16.2815 20.9447C16.2714 20.9198 16.2564 20.8971 16.2376 20.878C16.2187 20.8589 16.1962 20.8437 16.1715 20.8332C16.1467 20.8228 16.1201 20.8173 16.0932 20.8171ZM17.1309 16.9811C17.0767 16.9811 17.0246 17.0027 16.9862 17.0411C16.9478 17.0795 16.9263 17.1315 16.9263 17.1858V21.7591C16.9263 21.8719 17.0181 21.9624 17.1309 21.9624H17.8682C17.9811 21.9624 18.0716 21.8706 18.0716 21.7591V17.1858C18.0716 17.1317 18.0502 17.0799 18.0121 17.0415C17.974 17.0032 17.9223 16.9815 17.8682 16.9811H17.1309ZM22.1988 16.9811C22.1445 16.9811 22.0925 17.0027 22.0541 17.0411C22.0157 17.0795 21.9941 17.1315 21.9941 17.1858V19.9014L19.899 17.073C19.8938 17.0661 19.8881 17.0595 19.882 17.0533V17.052C19.8778 17.0474 19.8735 17.043 19.8689 17.0389L19.8649 17.0349C19.8604 17.0306 19.8556 17.0267 19.8505 17.0231H19.8492L19.8426 17.0179L19.8387 17.0153C19.8367 17.0137 19.8345 17.0124 19.8321 17.0113L19.8216 17.0048H19.819L19.8151 17.0021L19.802 16.9969L19.7967 16.9943C19.7924 16.9927 19.788 16.9914 19.7836 16.9903H19.781L19.777 16.989L19.7652 16.9864H19.7574L19.7534 16.9851H19.7482L19.7456 16.9838H18.9925C18.9385 16.9838 18.8866 17.0051 18.8483 17.0432C18.8099 17.0813 18.7882 17.1331 18.7879 17.1871V21.7604C18.7879 21.8732 18.8797 21.9637 18.9925 21.9637H19.7272C19.8413 21.9637 19.9332 21.8719 19.9332 21.7604V19.0448L22.0322 21.8785C22.0462 21.898 22.0635 21.9149 22.0834 21.9283L22.0847 21.9296L22.0978 21.9375L22.103 21.9401C22.1064 21.9421 22.1099 21.9439 22.1135 21.9454L22.1227 21.9493L22.1293 21.9519C22.1336 21.9534 22.138 21.9547 22.1424 21.9559H22.1463C22.1634 21.9608 22.181 21.9634 22.1988 21.9637H22.9335C23.0476 21.9637 23.1394 21.8719 23.1394 21.7604V17.1858C23.1394 17.1315 23.1179 17.0795 23.0795 17.0411C23.0411 17.0027 22.9891 16.9811 22.9348 16.9811H22.1988ZM27.2037 17.9218V17.1871C27.2039 17.1602 27.1987 17.1336 27.1886 17.1087C27.1785 17.0838 27.1636 17.0611 27.1447 17.042C27.1258 17.0229 27.1033 17.0077 27.0786 16.9972C27.0538 16.9868 27.0272 16.9813 27.0003 16.9811H24.0591C24.0061 16.9812 23.9553 17.0019 23.9174 17.0389H23.9161L23.9148 17.0415L23.9121 17.0454C23.8755 17.083 23.8548 17.1333 23.8544 17.1858V21.7591C23.8544 21.8129 23.8767 21.864 23.9121 21.8994L23.9148 21.9034L23.9174 21.906C23.9555 21.9425 24.0063 21.9627 24.0591 21.9624H27.0003C27.1132 21.9624 27.2037 21.8706 27.2037 21.7578V21.0231C27.2039 20.9962 27.1987 20.9696 27.1886 20.9447C27.1785 20.9198 27.1636 20.8971 27.1447 20.878C27.1258 20.8589 27.1033 20.8437 27.0786 20.8332C27.0538 20.8228 27.0272 20.8173 27.0003 20.8171H24.9984V20.0444H26.999C27.1119 20.0444 27.2024 19.9526 27.2024 19.8398V19.1051C27.2026 19.0782 27.1974 19.0516 27.1873 19.0267C27.1772 19.0018 27.1622 18.9791 27.1434 18.96C27.1245 18.9409 27.102 18.9257 27.0773 18.9152C27.0525 18.9048 27.0259 18.8993 26.999 18.8991H24.9984V18.1264H26.999C27.1119 18.1264 27.2024 18.0346 27.2024 17.9218H27.2037Z" fill="white"/>
</svg>
