<svg width="40" height="40" viewBox="0 0 40 40" fill="none" xmlns="http://www.w3.org/2000/svg">
<path d="M20 10C25.7868 10 30.4952 13.8202 30.4952 18.5168C30.4952 20.3968 29.7671 22.0891 28.2453 23.7566C26.0439 26.2911 21.1204 29.378 20 29.8503C18.9111 30.3095 19.0371 29.5919 19.0869 29.3085L19.0909 29.2849L19.2404 28.3862C19.2758 28.1186 19.3126 27.7027 19.2063 27.4377C19.0882 27.1452 18.6238 26.993 18.2827 26.9195C13.2385 26.2544 9.50482 22.7267 9.50482 18.5168C9.50482 13.8202 14.2145 10 20 10ZM16.0932 20.0832H14.0925V16.4519C14.0925 16.3979 14.0711 16.346 14.033 16.3077C13.995 16.2693 13.9432 16.2476 13.8892 16.2473H13.1519C13.125 16.2473 13.0984 16.2525 13.0736 16.2628C13.0487 16.2731 13.0262 16.2882 13.0072 16.3072C12.9882 16.3262 12.9731 16.3488 12.9628 16.3736C12.9525 16.3984 12.9472 16.425 12.9472 16.4519V21.0252C12.9472 21.079 12.9695 21.1301 13.005 21.1656V21.1669L13.0076 21.1695L13.0102 21.1721C13.0483 21.2087 13.0991 21.229 13.1519 21.2285H16.0932C16.206 21.2285 16.2965 21.1367 16.2965 21.0239V20.2892C16.2967 20.2623 16.2916 20.2357 16.2814 20.2108C16.2713 20.1859 16.2564 20.1632 16.2375 20.1441C16.2186 20.125 16.1962 20.1098 16.1714 20.0993C16.1466 20.0889 16.12 20.0834 16.0932 20.0832V20.0832ZM17.1309 16.2473C17.0766 16.2473 17.0245 16.2688 16.9862 16.3072C16.9478 16.3456 16.9262 16.3976 16.9262 16.4519V21.0252C16.9262 21.138 17.0181 21.2285 17.1309 21.2285H17.8682C17.981 21.2285 18.0715 21.1367 18.0715 21.0252V16.4519C18.0715 16.3979 18.0501 16.346 18.012 16.3077C17.9739 16.2693 17.9222 16.2476 17.8682 16.2473H17.1309ZM22.1987 16.2473C22.1445 16.2473 22.0924 16.2688 22.054 16.3072C22.0156 16.3456 21.9941 16.3976 21.9941 16.4519V19.1675L19.899 16.3391C19.8937 16.3322 19.888 16.3256 19.8819 16.3194V16.3181C19.8778 16.3135 19.8734 16.3091 19.8688 16.305L19.8649 16.301C19.8604 16.2967 19.8556 16.2928 19.8504 16.2892H19.8491L19.8426 16.284L19.8386 16.2814C19.8366 16.2798 19.8344 16.2785 19.8321 16.2774L19.8216 16.2709H19.819L19.815 16.2682L19.8019 16.263L19.7967 16.2604C19.7924 16.2588 19.788 16.2575 19.7835 16.2564H19.7809L19.777 16.2551L19.7652 16.2525H19.7573L19.7534 16.2512H19.7481L19.7455 16.2499H18.9925C18.9384 16.2499 18.8866 16.2713 18.8482 16.3094C18.8099 16.3475 18.7882 16.3992 18.7878 16.4532V21.0265C18.7878 21.1393 18.8796 21.2298 18.9925 21.2298H19.7271C19.8413 21.2298 19.9331 21.138 19.9331 21.0265V18.3109L22.0321 21.1446C22.0461 21.1641 22.0634 21.181 22.0833 21.1944L22.0846 21.1957L22.0977 21.2036L22.103 21.2062C22.1063 21.2082 22.1099 21.21 22.1135 21.2115L22.1227 21.2154L22.1292 21.218C22.1335 21.2195 22.1379 21.2208 22.1423 21.222H22.1463C22.1633 21.2269 22.181 21.2295 22.1987 21.2298H22.9334C23.0475 21.2298 23.1394 21.138 23.1394 21.0265V16.4519C23.1394 16.3976 23.1178 16.3456 23.0794 16.3072C23.0411 16.2688 22.989 16.2473 22.9347 16.2473H22.1987V16.2473ZM27.2036 17.1879V16.4532C27.2038 16.4263 27.1987 16.3997 27.1886 16.3748C27.1784 16.3499 27.1635 16.3273 27.1446 16.3081C27.1257 16.289 27.1033 16.2738 27.0785 16.2633C27.0537 16.2529 27.0272 16.2474 27.0003 16.2473H24.059C24.0061 16.2473 23.9552 16.268 23.9173 16.305H23.916L23.9147 16.3076L23.9121 16.3115C23.8754 16.3491 23.8548 16.3994 23.8544 16.4519V21.0252C23.8544 21.079 23.8767 21.1301 23.9121 21.1656L23.9147 21.1695L23.9173 21.1721C23.9554 21.2086 24.0063 21.2288 24.059 21.2285H27.0003C27.1131 21.2285 27.2036 21.1367 27.2036 21.0239V20.2892C27.2038 20.2623 27.1987 20.2357 27.1886 20.2108C27.1784 20.1859 27.1635 20.1632 27.1446 20.1441C27.1257 20.125 27.1033 20.1098 27.0785 20.0993C27.0537 20.0889 27.0272 20.0834 27.0003 20.0832H24.9983V19.3105H26.999C27.1118 19.3105 27.2023 19.2187 27.2023 19.1059V18.3712C27.2025 18.3443 27.1974 18.3177 27.1872 18.2928C27.1771 18.2679 27.1622 18.2452 27.1433 18.2261C27.1244 18.207 27.102 18.1918 27.0772 18.1813C27.0524 18.1709 27.0259 18.1654 26.999 18.1653H24.9983V17.3925H26.999C27.1118 17.3925 27.2023 17.3007 27.2023 17.1879H27.2036Z" fill="black" fill-opacity="0.68"/>
</svg>
