<svg width="40" height="41" viewBox="0 0 40 41" fill="none" xmlns="http://www.w3.org/2000/svg">
<rect y="0.733887" width="40" height="40" rx="20" fill="#222222"/>
<path d="M28.1665 13.7339H11.8332C11.5238 13.7339 11.227 13.8568 11.0082 14.0756C10.7894 14.2944 10.6665 14.5911 10.6665 14.9006V26.5672C10.6665 26.8766 10.7894 27.1734 11.0082 27.3922C11.227 27.611 11.5238 27.7339 11.8332 27.7339H28.1665C28.4759 27.7339 28.7727 27.611 28.9915 27.3922C29.2103 27.1734 29.3332 26.8766 29.3332 26.5672V14.9006C29.3332 14.5911 29.2103 14.2944 28.9915 14.0756C28.7727 13.8568 28.4759 13.7339 28.1665 13.7339ZM27.2682 26.5672H12.8015L16.8848 22.3439L16.0448 21.5331L11.8332 25.8906V15.7872L19.084 23.0031C19.3026 23.2203 19.5983 23.3423 19.9065 23.3423C20.2147 23.3423 20.5104 23.2203 20.729 23.0031L28.1665 15.6064V25.8147L23.8732 21.5214L23.0507 22.3439L27.2682 26.5672ZM12.5973 14.9006H27.2215L19.9065 22.1747L12.5973 14.9006Z" fill="white"/>
</svg>
