<svg width="40" height="40" viewBox="0 0 40 40" fill="none" xmlns="http://www.w3.org/2000/svg">
<path d="M28.1667 13H11.8333C11.5239 13 11.2272 13.1229 11.0084 13.3417C10.7896 13.5605 10.6667 13.8572 10.6667 14.1667V25.8333C10.6667 26.1428 10.7896 26.4395 11.0084 26.6583C11.2272 26.8771 11.5239 27 11.8333 27H28.1667C28.4761 27 28.7728 26.8771 28.9916 26.6583C29.2104 26.4395 29.3333 26.1428 29.3333 25.8333V14.1667C29.3333 13.8572 29.2104 13.5605 28.9916 13.3417C28.7728 13.1229 28.4761 13 28.1667 13V13ZM27.2683 25.8333H12.8017L16.885 21.61L16.045 20.7992L11.8333 25.1567V15.0533L19.0842 22.2692C19.3028 22.4865 19.5985 22.6084 19.9067 22.6084C20.2149 22.6084 20.5106 22.4865 20.7292 22.2692L28.1667 14.8725V25.0808L23.8733 20.7875L23.0508 21.61L27.2683 25.8333ZM12.5975 14.1667H27.2217L19.9067 21.4408L12.5975 14.1667Z" fill="black" fill-opacity="0.68"/>
</svg>
