<svg width="20" height="14" viewBox="0 0 20 14" fill="none" xmlns="http://www.w3.org/2000/svg">
<path d="M18.1667 0H1.83341C1.524 0 1.22725 0.122916 1.00846 0.341709C0.789664 0.560501 0.666748 0.857247 0.666748 1.16667V12.8333C0.666748 13.1428 0.789664 13.4395 1.00846 13.6583C1.22725 13.8771 1.524 14 1.83341 14H18.1667C18.4762 14 18.7729 13.8771 18.9917 13.6583C19.2105 13.4395 19.3334 13.1428 19.3334 12.8333V1.16667C19.3334 0.857247 19.2105 0.560501 18.9917 0.341709C18.7729 0.122916 18.4762 0 18.1667 0V0ZM17.2684 12.8333H2.80175L6.88508 8.61L6.04508 7.79917L1.83341 12.1567V2.05333L9.08425 9.26917C9.30284 9.48646 9.59853 9.60842 9.90675 9.60842C10.215 9.60842 10.5107 9.48646 10.7292 9.26917L18.1667 1.8725V12.0808L13.8734 7.7875L13.0509 8.61L17.2684 12.8333ZM2.59758 1.16667H17.2217L9.90675 8.44083L2.59758 1.16667Z" fill="#555555"/>
</svg>
