<svg width="22" height="20" viewBox="0 0 22 20" fill="none" xmlns="http://www.w3.org/2000/svg">
<path d="M11.0001 0C16.7868 0 21.4952 3.82025 21.4952 8.51684C21.4952 10.3968 20.7671 12.0891 19.2453 13.7566C17.044 16.2911 12.1204 19.378 11.0001 19.8503C9.91119 20.3095 10.0371 19.5919 10.087 19.3085L10.0909 19.2849L10.2405 18.3862C10.2759 18.1186 10.3126 17.7027 10.2064 17.4377C10.0883 17.1452 9.62388 16.993 9.28279 16.9195C4.23854 16.2544 0.504883 12.7267 0.504883 8.51684C0.504883 3.82025 5.2146 0 11.0001 0ZM7.09323 10.0832H5.09259V6.45191C5.09259 6.39786 5.07121 6.346 5.03311 6.30766C4.99501 6.26932 4.94329 6.2476 4.88924 6.24726H4.15196C4.12508 6.24726 4.09847 6.25255 4.07364 6.26283C4.04881 6.27312 4.02625 6.28819 4.00724 6.3072C3.98824 6.3262 3.97317 6.34876 3.96288 6.37359C3.9526 6.39842 3.9473 6.42504 3.9473 6.45191V11.0252C3.9473 11.079 3.9696 11.1301 4.00503 11.1656V11.1669L4.00765 11.1695L4.01027 11.1721C4.04832 11.2087 4.09917 11.229 4.15196 11.2285H7.09323C7.20606 11.2285 7.29658 11.1367 7.29658 11.0239V10.2892C7.29675 10.2623 7.29163 10.2357 7.2815 10.2108C7.27138 10.1859 7.25645 10.1632 7.23756 10.1441C7.21868 10.125 7.19622 10.1098 7.17145 10.0993C7.14669 10.0889 7.12011 10.0834 7.09323 10.0832V10.0832ZM8.13094 6.24726C8.07667 6.24726 8.02461 6.26882 7.98623 6.3072C7.94785 6.34558 7.92629 6.39763 7.92629 6.45191V11.0252C7.92629 11.138 8.01812 11.2285 8.13094 11.2285H8.86823C8.98105 11.2285 9.07157 11.1367 9.07157 11.0252V6.45191C9.07157 6.39786 9.05019 6.346 9.0121 6.30766C8.974 6.26932 8.92228 6.2476 8.86823 6.24726H8.13094ZM13.1988 6.24726C13.1445 6.24726 13.0925 6.26882 13.0541 6.3072C13.0157 6.34558 12.9941 6.39763 12.9941 6.45191V9.16754L10.899 6.33909C10.8937 6.3322 10.8881 6.32563 10.882 6.31941V6.3181C10.8778 6.31351 10.8735 6.30913 10.8689 6.30498L10.8649 6.30104C10.8604 6.29674 10.8556 6.29279 10.8505 6.28924H10.8492L10.8426 6.28399L10.8387 6.28137C10.8367 6.27984 10.8345 6.27852 10.8321 6.27743L10.8216 6.27087H10.819L10.8151 6.26825L10.802 6.263L10.7967 6.26037C10.7924 6.25882 10.788 6.2575 10.7836 6.25644H10.781L10.777 6.25513L10.7652 6.2525H10.7574L10.7534 6.25119H10.7482L10.7456 6.24988H9.99253C9.93847 6.24988 9.88662 6.27126 9.84827 6.30936C9.80993 6.34745 9.78822 6.39917 9.78787 6.45322V11.0265C9.78787 11.1393 9.8797 11.2298 9.99253 11.2298H10.7272C10.8413 11.2298 10.9332 11.138 10.9332 11.0265V8.31087L13.0322 11.1446C13.0462 11.1641 13.0635 11.181 13.0834 11.1944L13.0847 11.1957L13.0978 11.2036L13.103 11.2062C13.1064 11.2082 13.1099 11.21 13.1135 11.2115L13.1227 11.2154L13.1293 11.218C13.1336 11.2195 13.138 11.2208 13.1424 11.222H13.1463C13.1634 11.2269 13.181 11.2295 13.1988 11.2298H13.9335C14.0476 11.2298 14.1394 11.138 14.1394 11.0265V6.45191C14.1394 6.39763 14.1179 6.34558 14.0795 6.3072C14.0411 6.26882 13.9891 6.24726 13.9348 6.24726H13.1988V6.24726ZM18.2037 7.18789V6.45322C18.2039 6.42635 18.1987 6.3997 18.1886 6.3748C18.1785 6.34991 18.1636 6.32725 18.1447 6.30812C18.1258 6.289 18.1033 6.27378 18.0786 6.26334C18.0538 6.25289 18.0272 6.24743 18.0003 6.24726H15.0591C15.0061 6.24732 14.9553 6.26803 14.9174 6.30498H14.9161L14.9148 6.3076L14.9121 6.31154C14.8755 6.34913 14.8548 6.39942 14.8544 6.45191V11.0252C14.8544 11.079 14.8767 11.1301 14.9121 11.1656L14.9148 11.1695L14.9174 11.1721C14.9555 11.2086 15.0063 11.2288 15.0591 11.2285H18.0003C18.1132 11.2285 18.2037 11.1367 18.2037 11.0239V10.2892C18.2039 10.2623 18.1987 10.2357 18.1886 10.2108C18.1785 10.1859 18.1636 10.1632 18.1447 10.1441C18.1258 10.125 18.1033 10.1098 18.0786 10.0993C18.0538 10.0889 18.0272 10.0834 18.0003 10.0832H15.9984V9.31054H17.999C18.1119 9.31054 18.2024 9.2187 18.2024 9.10588V8.37122C18.2026 8.34434 18.1974 8.3177 18.1873 8.2928C18.1772 8.2679 18.1622 8.24525 18.1434 8.22612C18.1245 8.20699 18.102 8.19177 18.0773 8.18133C18.0525 8.17089 18.0259 8.16542 17.999 8.16525H15.9984V7.39254H17.999C18.1119 7.39254 18.2024 7.30071 18.2024 7.18789H18.2037Z" fill="#555555"/>
</svg>
