<?xml version="1.0" encoding="UTF-8"?>
<svg width="25px" height="25px" viewBox="0 0 25 25" version="1.1" xmlns="http://www.w3.org/2000/svg" xmlns:xlink="http://www.w3.org/1999/xlink">
    <title>Asset 4</title>
    <g id="Page-1" stroke="none" stroke-width="1" fill="none" fill-rule="evenodd">
        <g id="非會員首頁-" transform="translate(-518.000000, -3763.000000)" fill="#000000" fill-rule="nonzero">
            <g id="Asset-4" transform="translate(518.000000, 3763.000000)">
                <path d="M12.4997683,0 C5.61102189,0.000287919475 0.0209187059,5.57361208 5.78974426e-05,12.4621338 C-0.0206864663,19.3506555 5.53565341,24.9576388 12.4242725,24.9997666 C19.3128915,25.0414222 24.9370172,19.5024306 25,12.6141655 L25,12.4998808 C24.9976346,5.59736728 19.4024756,0.00236535982 12.4997683,0 Z M12.3569085,7.61421313 C12.9725528,7.65213048 13.5768617,7.79716055 14.1426559,8.04278047 C16.2255517,8.98134295 17.3812874,10.5956133 17.6212918,12.8670202 L17.6212918,12.9227339 C17.6270778,13.0881675 17.5007153,13.228426 17.3355722,13.2398738 C17.2554473,13.2471149 17.1759825,13.2202413 17.1166999,13.1658552 C17.0574174,13.1114691 17.0238113,13.0346108 17.0241379,12.9541622 C16.9856736,12.3702185 16.8459717,11.7974083 16.6112731,11.2613212 C15.7855435,9.4841953 14.4012321,8.46563358 12.4526246,8.22420731 L12.2854786,8.20277894 C12.2057454,8.19945685 12.1306603,8.16435548 12.0769794,8.10530816 C12.0232985,8.04626083 11.9954898,7.96818209 11.9997591,7.88849623 C12.0076987,7.80341625 12.050724,7.72548964 12.1184956,7.6734425 C12.1862672,7.62139537 12.2726582,7.59993308 12.3569085,7.61421313 L12.3569085,7.61421313 Z M11.8911856,9.65705079 C11.9169004,9.47562395 12.0697604,9.3827677 12.2997646,9.40848174 C14.1183698,9.61133694 15.44268,10.8370395 15.7869721,12.6255939 C15.8112583,12.7541641 15.8226871,12.8841629 15.836973,12.9913047 C15.8477992,13.0768014 15.8235237,13.1630365 15.7696864,13.2303313 C15.7158491,13.2976261 15.6370436,13.3402384 15.5512535,13.3484442 C15.4694096,13.3535961 15.3891013,13.324532 15.329512,13.2681946 C15.2699227,13.2118572 15.2364038,13.1333058 15.2369619,13.0513042 C15.1893959,12.3958693 14.9471315,11.769581 14.5412347,11.2527499 C13.9822784,10.531835 13.1472621,10.0775616 12.2383349,9.99990467 C11.9883303,9.97276207 11.8640423,9.84562043 11.8911856,9.65705079 Z M18.5384517,18.4383957 C18.0298708,19.2112454 17.2927143,19.5812419 16.3955548,19.6598126 C15.2069614,19.7712401 14.0940836,19.4569574 13.0454927,18.9455337 C10.051546,17.504905 7.64693834,15.0746289 6.23822371,12.0655993 C5.82793375,11.2378085 5.59625292,10.3330132 5.5582111,9.40991029 C5.53106774,8.50134753 5.72107127,7.65706986 6.41536985,7.00850462 C6.81394866,6.63136535 7.27252859,6.34851091 7.85682513,6.35993937 C8.28974124,6.35460944 8.69850273,6.55898445 8.95398833,6.90850557 C9.46114058,7.59992755 9.95400686,8.29992088 10.42973,9.0170569 C10.8405149,9.66303403 10.6813791,10.5167269 10.0654375,10.971324 C9.84543342,11.1413224 9.61114336,11.2970352 9.38542489,11.4570336 C9.90686313,12.5055951 12.5126257,15.1184273 13.7783635,15.8598488 L14.1426559,15.332711 C14.7226667,14.5027189 15.5712538,14.3512918 16.4084122,14.9341433 C16.9798514,15.3284253 17.528433,15.7412785 18.1084437,16.1169892 C18.857029,16.5955561 19.1698919,17.4755477 18.5384517,18.4383957 L18.5384517,18.4383957 Z M19.1427486,13.1241606 C18.9807804,13.1382146 18.8378419,13.0188898 18.8227427,12.8570203 C18.7370268,12.3684535 18.7055976,11.8570298 18.558452,11.3927485 C17.7141507,8.71420264 15.9041171,7.08278962 13.1497804,6.51422361 C12.9126331,6.46565265 12.6683429,6.45422418 12.4354814,6.42136736 C12.2169059,6.39136764 12.0983323,6.25994032 12.1211899,6.08279915 C12.1349662,5.99891943 12.1824317,5.92431596 12.2525743,5.87629654 C12.322717,5.82827713 12.4094406,5.81101534 12.4926253,5.82851586 C15.9324681,6.06911581 18.7589708,8.63622889 19.3284663,12.0370281 C19.3627527,12.2455975 19.3870388,12.4555955 19.4170394,12.664165 L19.4056106,12.664165 C19.4056106,12.7070217 19.418468,12.7498785 19.4198966,12.7927352 C19.4347619,12.9607466 19.3107431,13.1090536 19.1427486,13.1241606 L19.1427486,13.1241606 Z" id="Shape"></path>
            </g>
        </g>
    </g>
</svg>