<svg width="40" height="40" viewBox="0 0 40 40" fill="none" xmlns="http://www.w3.org/2000/svg">
<path d="M27.0462 12.9076C26.1293 11.9822 25.0374 11.2485 23.8341 10.7493C22.6308 10.2501 21.3402 9.99544 20.0375 10.0001C14.5788 10.0001 10.13 14.4475 10.125 19.9075C10.125 21.6563 10.5825 23.3575 11.4463 24.8638L10.045 30L15.3 28.6225C16.7538 29.4136 18.3824 29.8283 20.0375 29.8288H20.0425C25.5025 29.8288 29.95 25.3813 29.955 19.9163C29.9562 18.6138 29.6997 17.324 29.2003 16.1211C28.7009 14.9183 27.9684 13.8261 27.045 12.9076H27.0462ZM20.0375 28.1513C18.5612 28.1518 17.1121 27.7545 15.8425 27.0013L15.5425 26.8213L12.425 27.6388L13.2575 24.5975L13.0625 24.2838C12.2373 22.9717 11.8008 21.4526 11.8038 19.9025C11.8038 15.37 15.5 11.6726 20.0425 11.6726C21.1247 11.6706 22.1965 11.8829 23.1963 12.2972C24.196 12.7114 25.1039 13.3195 25.8675 14.0863C26.6338 14.8501 27.2412 15.7581 27.6549 16.7578C28.0685 17.7576 28.2801 18.8293 28.2775 19.9113C28.2725 24.46 24.5762 28.1513 20.0375 28.1513V28.1513ZM24.5562 21.9838C24.31 21.86 23.0937 21.2613 22.865 21.1763C22.6375 21.095 22.4712 21.0525 22.3087 21.3C22.1425 21.5463 21.6675 22.1075 21.525 22.2688C21.3825 22.435 21.235 22.4538 20.9875 22.3313C20.7412 22.2063 19.9425 21.9463 18.9975 21.1C18.26 20.4438 17.7663 19.6313 17.6188 19.385C17.4763 19.1375 17.605 19.005 17.7288 18.8813C17.8375 18.7713 17.975 18.5913 18.0988 18.4488C18.2238 18.3063 18.265 18.2013 18.3463 18.0363C18.4275 17.8688 18.3888 17.7263 18.3275 17.6025C18.265 17.4788 17.7713 16.2575 17.5625 15.765C17.3625 15.2788 17.1588 15.3463 17.0063 15.34C16.8638 15.3313 16.6975 15.3313 16.5313 15.3313C16.4057 15.3344 16.2822 15.3635 16.1684 15.4166C16.0546 15.4697 15.953 15.5458 15.87 15.64C15.6425 15.8875 15.0063 16.4863 15.0063 17.7075C15.0063 18.9288 15.8938 20.1025 16.0188 20.2688C16.1413 20.435 17.7613 22.9338 20.2475 24.0088C20.835 24.265 21.2975 24.4163 21.6587 24.5313C22.2525 24.7213 22.7887 24.6925 23.2162 24.6313C23.6912 24.5588 24.68 24.0313 24.8887 23.4525C25.0937 22.8725 25.0937 22.3775 25.0312 22.2738C24.97 22.1688 24.8037 22.1075 24.5562 21.9838V21.9838Z" fill="black" fill-opacity="0.68"/>
</svg>
